<svg width="409" height="115" viewBox="0 0 409 115" fill="none" xmlns="http://www.w3.org/2000/svg">
<path d="M184.276 12.5635H107.85V102.215H184.276C208.816 102.215 228.705 82.1304 228.705 57.4297C228.705 32.648 208.816 12.5635 184.276 12.5635Z" fill="#0994DC"/>
<path d="M121.643 42.6907H127.498V46.9829H121.643V65.3667C121.643 67.6343 122.285 68.0393 125.252 68.0393H127.498V72.3315H123.809C118.836 72.3315 116.831 71.2787 116.831 65.8526V46.9829H111.859V42.6907H116.831V33.7822H121.643V42.6907Z" fill="white"/>
<path d="M153.079 72.3313H148.508V67.6341H148.427C146.422 71.2784 143.134 73.0601 138.884 73.0601C131.185 73.0601 128.779 68.6059 128.779 62.208V42.6904H133.591V62.7749C133.591 66.4193 135.837 68.7679 139.526 68.7679C145.38 68.7679 148.187 64.7996 148.187 59.4545V42.6904H152.999V72.3313H153.079Z" fill="white"/>
<path d="M169.28 46.2539C162.704 46.2539 160.298 51.923 160.298 57.43C160.298 63.261 162.944 68.687 169.601 68.687C176.177 68.687 178.422 63.018 178.422 57.187C178.342 51.68 175.535 46.2539 169.28 46.2539ZM155.646 31.3525H160.458V46.6588H160.538C162.142 43.4194 165.831 41.9617 169.921 41.9617C178.984 41.9617 183.475 49.1694 183.475 57.5919C183.475 66.0145 179.064 73.0603 170.082 73.0603C167.115 73.0603 162.704 71.9265 160.619 68.4441H160.538V72.4124H155.727V31.3525H155.646Z" fill="white"/>
<path d="M206.089 54.6757C205.768 50.0595 202.48 46.3342 197.588 46.3342C192.616 46.3342 189.488 50.1405 189.168 54.6757H206.089ZM210.74 62.9363C209.457 69.4962 204.806 73.0595 198.15 73.0595C188.767 73.0595 184.356 66.4997 184.035 57.4293C184.035 48.4398 189.809 41.9609 197.829 41.9609C208.254 41.9609 211.382 51.7602 211.141 58.968H189.168C189.007 64.1511 191.894 68.6863 198.31 68.6863C202.32 68.6863 205.047 66.8236 205.929 62.8553H210.74V62.9363Z" fill="white"/>
<path d="M6.24023 38.3174H14.5806L23.8834 64.9618H23.9635L33.0257 38.3174H41.2057V72.3315H35.592V46.0921H35.5118L26.1289 72.3315H21.3171L11.9341 46.0921H11.854V72.3315H6.24023V38.3174Z" fill="#0994DC"/>
<path d="M45.5371 38.3174H69.8365V43.5005H51.4716V52.409H68.4732V57.2681H51.4716V67.2294H70.1573V72.4125H45.5371V38.3174Z" fill="#0994DC"/>
<path d="M80.1008 65.9336V44.7153L93.9747 55.3244L80.1008 65.9336ZM86.5967 38.3174H72.6426V72.3315H86.5967C96.942 72.3315 101.433 64.7188 101.433 55.3244C101.433 45.9301 96.942 38.3174 86.5967 38.3174Z" fill="#0994DC"/>
<path d="M269.524 40.3418C269.524 41.7185 270.727 42.2854 271.93 42.2854C272.812 42.2854 274.015 41.9615 274.015 40.8277C274.015 39.8559 272.651 39.5319 270.406 39.046C268.561 38.6411 266.797 37.9932 266.797 35.9685C266.797 32.9721 269.364 32.2432 271.769 32.2432C274.255 32.2432 276.581 33.134 276.822 35.9685H273.854C273.774 34.7538 272.812 34.4298 271.689 34.4298C270.967 34.4298 269.925 34.5108 269.925 35.4826C269.925 36.6164 271.689 36.7784 273.534 37.1833C275.378 37.5883 277.142 38.3171 277.142 40.4228C277.142 43.5002 274.496 44.4721 271.93 44.4721C269.283 44.4721 266.637 43.5002 266.557 40.4228H269.524V40.3418Z" fill="#BDBCBC"/>
<path d="M279.066 28.1123H282.194V34.1862H282.274C283.076 32.8905 284.44 32.2426 285.642 32.2426C289.011 32.2426 289.813 34.1862 289.813 37.0208V44.1475H286.685V37.5877C286.685 35.644 286.124 34.7532 284.68 34.7532C282.996 34.7532 282.274 35.725 282.274 38.0736V44.1475H279.147V28.1123H279.066Z" fill="#BDBCBC"/>
<path d="M299.357 38.479C298.796 38.9649 297.753 38.9649 296.711 39.1269C295.748 39.2889 294.866 39.6938 294.866 40.8276C294.866 41.9614 295.748 42.2853 296.791 42.2853C299.277 42.2853 299.357 40.3417 299.357 39.6128V38.479ZM292.059 36.0494C292.22 33.0529 294.866 32.1621 297.432 32.1621C299.758 32.1621 302.485 32.648 302.485 35.4825V41.4755C302.485 42.5283 302.565 43.5811 302.886 44.067H299.678C299.598 43.7431 299.437 43.3382 299.437 42.9332C298.475 43.986 297.031 44.391 295.588 44.391C293.423 44.391 291.658 43.2572 291.658 40.9086C291.738 35.6445 299.437 38.479 299.277 35.8874C299.277 34.5107 298.314 34.3487 297.272 34.3487C296.069 34.3487 295.267 34.8346 295.187 36.1304H292.059V36.0494Z" fill="#BDBCBC"/>
<path d="M304.971 32.4861H307.938V34.6727H308.018C308.58 33.215 310.103 32.2432 311.707 32.2432C311.948 32.2432 312.188 32.3242 312.429 32.3242V35.3206C312.108 35.2396 311.707 35.2397 311.306 35.2397C308.981 35.2397 308.179 36.8594 308.179 38.965V44.1481H305.051V32.4861H304.971Z" fill="#BDBCBC"/>
<path d="M313.713 32.4855H316.841V44.0665H313.713V32.4855ZM316.841 30.7039H313.713V28.1123H316.841V30.7039Z" fill="#BDBCBC"/>
<path d="M319.326 32.486H322.293V34.1057H322.374C323.176 32.81 324.539 32.1621 325.902 32.1621C329.271 32.1621 330.072 34.1057 330.072 36.9402V44.067H326.945V37.5072C326.945 35.5635 326.383 34.6727 324.94 34.6727C323.256 34.6727 322.534 35.6445 322.534 37.9931V44.067H319.406V32.486H319.326Z" fill="#BDBCBC"/>
<path d="M340.497 38.1551C340.497 36.2924 339.855 34.5918 337.85 34.5918C336.086 34.5918 335.284 36.1305 335.284 37.9122C335.284 39.6129 335.845 41.3946 337.85 41.3946C339.614 41.3946 340.497 39.8558 340.497 38.1551ZM343.544 43.4192C343.544 45.3629 342.822 48.5214 337.61 48.5214C335.364 48.5214 332.718 47.3875 332.557 44.796H335.685C336.006 46.0108 336.888 46.4157 338.011 46.4157C339.775 46.4157 340.577 45.2009 340.577 43.5812V42.0425H340.497C339.775 43.2573 338.492 43.8241 337.048 43.8241C333.6 43.8241 332.156 41.1516 332.156 37.9932C332.156 34.9967 333.921 32.2432 337.048 32.2432C338.572 32.2432 339.695 32.7291 340.497 34.1058H340.577V32.5671H343.544V43.4192Z" fill="#BDBCBC"/>
<path d="M267.199 59.4548H270.167V60.9935H270.247C271.049 59.7787 272.252 59.1309 273.775 59.1309C275.219 59.1309 276.502 59.6168 277.144 61.0745C277.865 60.1027 278.988 59.1309 280.592 59.1309C282.998 59.1309 284.762 60.2646 284.762 63.2611V71.0358H281.635V64.4759C281.635 62.9372 281.474 61.6414 279.71 61.6414C277.945 61.6414 277.625 63.1802 277.625 64.5569V71.0358H274.497V64.5569C274.497 63.1802 274.577 61.6414 272.572 61.6414C271.931 61.6414 270.407 62.0464 270.407 64.314V71.0358H267.279V59.4548H267.199Z" fill="#BDBCBC"/>
<path d="M294.946 63.9899C294.625 62.3702 293.983 61.5603 292.46 61.5603C290.455 61.5603 289.893 63.0991 289.813 63.9899H294.946ZM289.813 66.0146C289.893 68.0392 290.856 68.93 292.62 68.93C293.903 68.93 294.946 68.1202 295.106 67.3913H297.913C297.031 70.1449 295.106 71.2787 292.54 71.2787C288.931 71.2787 286.686 68.7681 286.686 65.2047C286.686 61.7223 289.091 59.0498 292.54 59.0498C296.469 59.0498 298.394 62.3702 298.154 65.9336H289.813V66.0146Z" fill="#BDBCBC"/>
<path d="M305.452 61.5598C303.367 61.5598 302.645 63.3415 302.645 65.2852C302.645 67.0669 303.447 69.0106 305.452 69.0106C307.537 69.0106 308.179 67.1478 308.179 65.2852C308.098 63.3415 307.457 61.5598 305.452 61.5598ZM308.179 69.5775C307.377 70.8732 306.174 71.3591 304.65 71.3591C301.202 71.3591 299.518 68.3627 299.518 65.1232C299.518 62.0458 301.202 59.1303 304.57 59.1303C305.933 59.1303 307.297 59.6971 307.938 60.8309H308.018V55H311.146V71.0352H308.179V69.5775Z" fill="#BDBCBC"/>
<path d="M313.631 59.4543H316.759V71.0353H313.631V59.4543ZM316.759 57.6726H313.631V55.0811H316.759V57.6726Z" fill="#BDBCBC"/>
<path d="M327.104 63.5041C326.863 62.2083 326.142 61.4795 324.778 61.4795C322.773 61.4795 322.051 63.5041 322.051 65.2858C322.051 66.9865 322.693 68.9301 324.698 68.9301C326.222 68.9301 327.024 68.0393 327.184 66.5816H330.231C329.83 69.659 327.745 71.3597 324.698 71.3597C321.25 71.3597 318.924 68.9301 318.924 65.4478C318.924 61.8034 321.089 59.1309 324.778 59.1309C327.505 59.1309 329.991 60.5886 330.151 63.5041H327.104Z" fill="#BDBCBC"/>
<path d="M339.214 65.3668C338.653 65.8527 337.61 65.8527 336.568 66.0147C335.606 66.1766 334.723 66.5815 334.723 67.7153C334.723 68.8491 335.606 69.1731 336.648 69.1731C339.134 69.1731 339.214 67.2294 339.214 66.5006V65.3668ZM331.917 63.0182C332.077 60.0217 334.723 59.1309 337.29 59.1309C339.615 59.1309 342.342 59.6168 342.342 62.4513V68.5252C342.342 69.578 342.422 70.6309 342.743 71.1168H339.535C339.455 70.7928 339.295 70.3879 339.295 69.983C338.332 71.0358 336.889 71.4407 335.445 71.4407C333.28 71.4407 331.516 70.3069 331.516 67.9583C331.596 62.6943 339.295 65.5288 339.134 62.9372C339.134 61.5604 338.172 61.3985 337.129 61.3985C335.926 61.3985 335.124 61.8844 335.044 63.1802H331.917V63.0182Z" fill="#BDBCBC"/>
<path d="M348.036 55H344.908V71.0352H348.036V55Z" fill="#BDBCBC"/>
<path d="M267.359 81.9688H270.487V90.5532L274.497 86.342H278.266L273.935 90.6343L278.747 98.004H274.898L271.77 92.8208L270.567 94.0356V98.004H267.44V81.9688H267.359Z" fill="#BDBCBC"/>
<path d="M279.869 86.3415H282.836V87.9612H282.917C283.718 86.6654 285.082 86.0176 286.445 86.0176C289.813 86.0176 290.615 87.9612 290.615 90.7957V97.9225H287.488V91.3626C287.488 89.419 286.926 88.5281 285.483 88.5281C283.799 88.5281 283.077 89.5 283.077 91.8486V97.9225H279.949V86.3415H279.869Z" fill="#BDBCBC"/>
<path d="M298.636 95.8979C300.801 95.8979 301.443 94.0352 301.443 92.1725C301.443 90.3098 300.801 88.4472 298.636 88.4472C296.47 88.4472 295.829 90.3098 295.829 92.1725C295.829 94.0352 296.47 95.8979 298.636 95.8979ZM298.636 86.0176C302.245 86.0176 304.57 88.4471 304.57 92.1725C304.57 95.8169 302.245 98.2464 298.636 98.2464C295.027 98.2464 292.701 95.8169 292.701 92.1725C292.701 88.4471 295.027 86.0176 298.636 86.0176Z" fill="#BDBCBC"/>
<path d="M319.726 97.9228H316.518L314.433 90.1481H314.353L312.428 97.9228H309.14L305.531 86.3418H308.899L310.985 94.1974H311.065L312.989 86.3418H316.037L317.962 94.1974H318.042L320.127 86.3418H323.335L319.726 97.9228Z" fill="#BDBCBC"/>
<path d="M327.907 81.9688H324.779V98.004H327.907V81.9688Z" fill="#BDBCBC"/>
<path d="M338.172 90.8767C337.851 89.257 337.21 88.4471 335.686 88.4471C333.601 88.4471 333.12 89.9858 333.04 90.8767H338.172ZM333.04 92.9013C333.12 94.926 334.082 95.8168 335.847 95.8168C337.13 95.8168 338.172 95.007 338.333 94.2781H341.14C340.257 97.0316 338.333 98.1654 335.766 98.1654C332.158 98.1654 329.912 95.6549 329.912 92.0915C329.912 88.6091 332.318 85.9365 335.766 85.9365C339.696 85.9365 341.621 89.2569 341.38 92.8203H333.04V92.9013Z" fill="#BDBCBC"/>
<path d="M348.597 88.4476C346.512 88.4476 345.79 90.2293 345.79 92.1729C345.79 93.9546 346.592 95.8983 348.597 95.8983C350.682 95.8983 351.323 94.0356 351.323 92.1729C351.323 90.2293 350.682 88.4476 348.597 88.4476ZM351.323 96.4652C350.521 97.7609 349.318 98.2469 347.795 98.2469C344.346 98.2469 342.662 95.2504 342.662 92.0109C342.662 88.9335 344.346 86.018 347.715 86.018C349.078 86.018 350.441 86.5849 351.083 87.7187H351.163V81.8877H354.291V97.9229H351.323V96.4652Z" fill="#BDBCBC"/>
<path d="M364.798 92.0105C364.798 90.1478 364.156 88.4472 362.071 88.4472C360.307 88.4472 359.505 89.9859 359.505 91.7676C359.505 93.4683 360.146 95.2499 362.071 95.2499C363.915 95.2499 364.798 93.7112 364.798 92.0105ZM367.765 97.1936C367.765 99.1373 367.043 102.296 361.83 102.296C359.585 102.296 356.938 101.162 356.778 98.5704H359.906C360.226 99.7852 361.108 100.19 362.231 100.19C363.996 100.19 364.798 98.9753 364.798 97.3556V95.8169H364.717C363.996 97.0316 362.712 97.5986 361.269 97.5986C357.82 97.5986 356.377 94.926 356.377 91.7676C356.377 88.7711 358.141 86.0176 361.269 86.0176C362.793 86.0176 363.915 86.5035 364.717 87.8802H364.798V86.3415H367.765V97.1936Z" fill="#BDBCBC"/>
<path d="M378.03 90.8767C377.709 89.257 377.067 88.4471 375.544 88.4471C373.459 88.4471 372.977 89.9858 372.897 90.8767H378.03ZM372.897 92.9013C372.977 94.926 373.94 95.8168 375.704 95.8168C376.987 95.8168 378.03 95.007 378.19 94.2781H380.997C380.115 97.0316 378.19 98.1654 375.624 98.1654C372.015 98.1654 369.77 95.6549 369.77 92.0915C369.77 88.6091 372.175 85.9365 375.624 85.9365C379.553 85.9365 381.478 89.2569 381.238 92.8203H372.897V92.9013Z" fill="#BDBCBC"/>
<path d="M402.489 91.2011H400.324V84.6413H400.244L397.918 91.2011H396.394L394.069 84.6413H393.988V91.2011H391.823V81.9688H394.871L397.196 88.0427L399.522 81.9688H402.489V91.2011ZM390.78 83.7505H388.134V91.2011H385.889V83.7505H383.322V81.9688H390.78V83.7505Z" fill="#BDBCBC"/>
</svg>
