<svg width="100" height="50" viewBox="0 0 100 50" fill="none" xmlns="http://www.w3.org/2000/svg">
<g clip-path="url(#clip0_38_583)">
<path d="M35.3978 3.8595L30.7012 11.9257" stroke="#2782C4" stroke-width="0.75" stroke-miterlimit="10"/>
<path d="M32.3023 2.04327L28.5664 10.0561" stroke="#2782C4" stroke-width="0.75" stroke-miterlimit="10"/>
<path d="M28.5665 0.921448L26.4316 9.25478" stroke="#2782C4" stroke-width="0.75" stroke-miterlimit="10"/>
<path d="M21.2012 0.387268L21.895 10.9108" stroke="#2782C4" stroke-width="0.75" stroke-miterlimit="10"/>
<path d="M17.4121 0.921448L20.0539 11.5518" stroke="#2782C4" stroke-width="0.75" stroke-miterlimit="10"/>
<path d="M13.5391 2.22223L16.6932 9.04114" stroke="#2782C4" stroke-miterlimit="10"/>
<path d="M11.4336 3.43213L15.3563 10.5902" stroke="#2782C4" stroke-width="0.75" stroke-miterlimit="10"/>
<path d="M8.60547 0.921448L12.0212 7.01119" stroke="#2782C4" stroke-width="0.75" stroke-miterlimit="10"/>
<path d="M8.125 6.04968L13.0884 11.5518" stroke="#2782C4" stroke-width="0.75" stroke-miterlimit="10"/>
<path d="M5.99023 7.89264L11.434 12.9941" stroke="#2782C4" stroke-width="0.75" stroke-miterlimit="10"/>
<path d="M1.1875 7.54541L7.05824 11.9258" stroke="#2782C4" stroke-width="0.75" stroke-miterlimit="10"/>
<path d="M3.69531 10.9108L9.8329 15.2377" stroke="#2782C4" stroke-width="0.75" stroke-miterlimit="10"/>
<path d="M1.1875 13.9556L9.4599 18.4829" stroke="#2782C4" stroke-width="0.75" stroke-miterlimit="10"/>
<path d="M9.83203 17.4813L11.6466 18.2825" stroke="#2782C4" stroke-width="0.75" stroke-miterlimit="10"/>
<path d="M0.759766 31.6373L9.45913 27.8445" stroke="#2782C4" stroke-width="0.75" stroke-miterlimit="10"/>
<path d="M3.16211 34.6287L10.3137 29.9813" stroke="#2782C4" stroke-width="0.75" stroke-miterlimit="10"/>
<path d="M1.1875 40.2377L11.6481 31.9044" stroke="#2782C4" stroke-width="0.75" stroke-miterlimit="10"/>
<path d="M14.5293 32.305L7.48438 40.2377" stroke="#2782C4" stroke-width="0.75" stroke-miterlimit="10"/>
<path d="M15.356 33.8275L10.3125 42.1074" stroke="#2782C4" stroke-width="0.75" stroke-miterlimit="10"/>
<path d="M13.3945 43.8168L15.7562 38.7954" stroke="#2782C4" stroke-width="0.75" stroke-miterlimit="10"/>
<path d="M17.0918 39.3296L12.3418 49.9599" stroke="#2782C4" stroke-width="0.75" stroke-miterlimit="10"/>
<path d="M21.3069 37.4065L20.0527 49.6394" stroke="#2782C4" stroke-width="0.75"/>
<path d="M22.8549 46.1912C10.3129 46.0203 0.199219 35.7906 0.199219 23.1971C0.199219 10.6036 10.4864 0.200317 23.1751 0.200317C28.9765 0.200317 34.2762 2.3531 38.319 5.90277" stroke="#2782C4" stroke-width="1.5" stroke-miterlimit="10"/>
<path d="M22.5884 42.6362C12.1145 42.4092 3.69531 33.8408 3.69531 23.304C3.69531 12.7671 12.3466 3.96637 23.0154 3.96637C26.9434 3.96637 30.5993 5.13891 33.6494 7.15547" stroke="#2782C4" stroke-width="1.5" stroke-miterlimit="10"/>
<path d="M24.0781 40.6036C23.7792 40.6196 23.475 40.6277 23.1708 40.6277C13.6095 40.6277 5.85742 32.8686 5.85742 23.2986C5.85742 13.7286 13.6095 5.96954 23.1708 5.96954C28.377 5.96954 33.0443 8.26922 36.2198 11.907" stroke="#2782C4" stroke-width="1.5" stroke-miterlimit="10"/>
<path d="M26.7384 7.02991C34.2876 8.57638 39.9636 15.2591 39.9636 23.2719C39.9636 32.4279 32.5477 39.8504 23.4001 39.8504C15.8829 39.8504 9.53712 34.8397 7.51172 27.9754" stroke="#2782C4" stroke-width="1.5" stroke-miterlimit="10"/>
<path d="M35.6406 13.8381C37.7354 16.5144 38.9736 19.8878 38.9469 23.5523C38.9416 24.5085 38.8482 25.4434 38.6774 26.3515" stroke="#2782C4" stroke-width="1.5" stroke-miterlimit="10"/>
<path d="M13.8109 35.5529C10.1684 32.7003 7.82812 28.2612 7.82812 23.2746C7.82812 14.6688 14.7983 7.68964 23.3989 7.68964C28.1062 7.68964 32.3278 9.78098 35.1831 13.0876" stroke="#CDD6EF" stroke-width="2.5" stroke-miterlimit="10"/>
<path d="M26.446 38.5577C25.4613 38.7526 24.4419 38.8568 23.3985 38.8568C19.7827 38.8568 16.4524 37.6228 13.8105 35.5529" stroke="#2782C4" stroke-width="1.5" stroke-miterlimit="10"/>
<path d="M22.7447 37.7778C14.9553 37.5427 8.71094 31.1485 8.71094 23.2932C8.71094 15.438 15.1928 8.80072 23.1876 8.80072C26.8569 8.80072 30.2085 10.1682 32.7596 12.4198" stroke="#2782C4" stroke-width="1.5" stroke-miterlimit="10"/>
<path d="M36.8755 23.2425C36.8755 30.6437 30.882 36.6426 23.4876 36.6426C16.0931 36.6426 10.0996 30.6437 10.0996 23.2425C10.0996 15.8413 16.0931 9.84241 23.4876 9.84241C30.882 9.84241 36.8755 15.8413 36.8755 23.2425Z" stroke="#2782C4" stroke-width="1.5" stroke-miterlimit="10"/>
<path d="M23.6857 38.7954C20.2059 38.8622 16.9717 37.7778 14.3405 35.8975L13.7188 36.6747C16.5234 38.6966 19.9818 39.8611 23.7017 39.789C24.9292 39.765 26.1247 39.6074 27.2721 39.3323L26.5543 38.4722C25.6257 38.6646 24.665 38.7794 23.683 38.7981L23.6857 38.7954Z" fill="#00518B"/>
<path d="M36.4712 13.0956L35.7773 13.8248C37.7787 16.4477 38.9689 19.7196 38.9689 23.2746C38.9689 24.3269 38.8595 25.3553 38.6593 26.3488L39.5319 27.0326C39.8121 25.8253 39.9616 24.5673 39.9616 23.2746C39.9616 19.4365 38.6567 15.9055 36.4685 13.0956H36.4712Z" fill="#00518B"/>
<path d="M7.66016 40.1496C8.45004 40.8734 9.29062 41.5439 10.1766 42.1555L11.9031 39.116C11.1719 38.6005 10.4781 38.0396 9.82699 37.4306L7.66016 40.1496Z" fill="#CD1719"/>
<path d="M10.4749 8.59511L8.0412 5.89746C7.29135 6.55451 6.58686 7.25964 5.92773 8.0075L8.55356 10.4835C9.14863 9.81039 9.79175 9.18005 10.4749 8.59511Z" fill="#CD1719"/>
<path d="M17.752 41.9124L16.6953 45.2618C18.5393 45.804 20.4793 46.1191 22.4833 46.1779L22.3446 42.6256C20.7595 42.5721 19.2197 42.3264 17.7547 41.9124H17.752Z" fill="#CD1719"/>
<path d="M14.1758 8.48827L15.027 10.1362C15.5447 9.80505 16.0811 9.50056 16.6362 9.23079L15.9957 7.52673C15.3686 7.81252 14.7602 8.13037 14.1758 8.48827Z" fill="#CD1719"/>
<path d="M14.4648 9.09189L15.3214 10.6036C15.8098 10.2831 16.3141 9.98398 16.8425 9.71956L16.186 8.14905C15.591 8.43217 15.0172 8.74467 14.4648 9.09189Z" fill="#CD1719"/>
<path d="M33.0531 25.9562C32.0231 30.3445 28.0897 33.6138 23.3904 33.6138C22.4004 33.6138 21.4451 33.4669 20.5431 33.1971L20.4551 34.9759C21.2156 35.1309 22.0001 35.2137 22.806 35.2137C28.4339 35.2137 33.1385 31.2687 34.318 25.9936L33.0558 25.9562H33.0531Z" fill="#CDD6EF"/>
<path d="M32.7835 23.4108C32.7835 28.8995 28.3377 33.3466 22.8566 33.3466C17.3754 33.3466 12.9297 28.8995 12.9297 23.4108C12.9297 17.922 17.3754 13.4749 22.8566 13.4749C28.3377 13.4749 32.7835 17.9246 32.7835 23.4108Z" stroke="#CDD6EF" stroke-width="5" stroke-miterlimit="10"/>
<path d="M34.8366 25.4304C35.8538 18.9874 31.4601 12.9389 25.0229 11.9207C18.5857 10.9026 12.5427 15.3003 11.5255 21.7433C10.5082 28.1863 14.902 34.2348 21.3391 35.253C27.7763 36.2712 33.8193 31.8734 34.8366 25.4304Z" stroke="#2782C4" stroke-miterlimit="10"/>
<path d="M20.4513 34.1506C16.3178 33.4695 12.8781 30.422 11.752 26.3114" stroke="#2782C4" stroke-miterlimit="10"/>
<path d="M12.4798 25.1469C12.3891 24.5833 12.3438 24.0037 12.3438 23.4135C12.3438 17.4092 17.2058 12.5427 23.2073 12.5427C29.2088 12.5427 34.0681 17.4092 34.0681 23.4135C34.0681 29.4177 29.6517 33.8248 24.0452 34.2548" stroke="#2782C4" stroke-miterlimit="10"/>
<path d="M22.5392 32.5294C17.6105 32.4145 13.6504 28.3814 13.6504 23.4215C13.6504 19.3964 16.2575 15.9802 19.876 14.7756" stroke="#2782C4" stroke-width="3" stroke-miterlimit="10"/>
<path d="M34.6028 23.4055C34.6028 29.9279 29.3218 35.2137 22.8053 35.2137C16.2888 35.2137 11.0078 29.9279 11.0078 23.4055C11.0078 16.883 16.2888 11.5972 22.8053 11.5972C29.3218 11.5972 34.6028 16.883 34.6028 23.4055Z" stroke="#CDD6EF" stroke-miterlimit="10"/>
<path d="M11.2715 23.5871C11.2715 24.4444 11.3649 25.2805 11.5383 26.0844L12.6271 25.1229C12.515 24.4979 12.4536 23.8515 12.4536 23.1944C12.4536 18.4509 15.5251 14.4284 19.7867 13.0075V12.2436C14.8686 13.6672 11.2715 18.2078 11.2715 23.5897V23.5871Z" fill="#2782C4"/>
<path d="M22.6953 10.8574L22.8021 14.383" stroke="#2782C4" stroke-miterlimit="10"/>
<path d="M21.3086 11.5518L21.5488 14.383" stroke="#2782C4" stroke-miterlimit="10"/>
<path d="M31.875 19.5112L34.2233 19.0305" stroke="#2782C4" stroke-miterlimit="10"/>
<path d="M30.7012 27.8445L33.6499 29.4471" stroke="#2782C4" stroke-miterlimit="10"/>
<path d="M30.0078 28.6458L32.7644 31.2099" stroke="#2782C4" stroke-miterlimit="10"/>
<path d="M23.4743 41.3034C27.9307 41.3301 27.5038 41.0363 28.0108 40.9829C26.0361 35.3472 26.1428 33.1838 25.9667 29.3803C25.9454 29.2601 25.9347 29.1453 25.932 29.0331C25.3209 29.0919 24.9233 29.2708 23.7679 29.0171C23.5544 32.9167 23.3676 31.047 23.4743 41.3034Z" fill="#BFBFBF" stroke="#BFBFBF"/>
<path d="M35.7467 27.2303C35.7467 33.125 30.9727 37.9033 25.0833 37.9033C19.1939 37.9033 14.4199 33.125 14.4199 27.2303C14.4199 21.3355 19.1939 16.5572 25.0833 16.5572C30.9727 16.5572 35.7467 21.3355 35.7467 27.2303Z" fill="url(#paint0_radial_38_583)"/>
<path d="M31.4452 23.5257C31.4452 28.3734 27.5171 32.305 22.6738 32.305C17.8304 32.305 13.9023 28.3761 13.9023 23.5257C13.9023 18.6752 17.8304 14.7463 22.6738 14.7463C27.5171 14.7463 31.4452 18.6779 31.4452 23.5257Z" fill="#1E1E1E"/>
<path d="M27.7654 22.5134C27.7654 25.8841 25.0355 28.6165 21.6679 28.6165C18.3002 28.6165 15.5703 25.8841 15.5703 22.5134C15.5703 19.1427 18.3002 16.4103 21.6679 16.4103C25.0355 16.4103 27.7654 19.1427 27.7654 22.5134Z" fill="white"/>
<path d="M27.3281 25.6267C27.886 23.8184 26.8736 21.8998 25.067 21.3414C23.2603 20.783 21.3434 21.7963 20.7855 23.6046C20.2276 25.413 21.24 27.3316 23.0467 27.89C24.8534 28.4483 26.7702 27.4351 27.3281 25.6267Z" fill="url(#paint1_radial_38_583)"/>
<path d="M20.7208 20.7933L15.3918 13.6298L12.0215 17.4813L20.7208 20.7933Z" fill="url(#paint2_linear_38_583)"/>
<path d="M45.0766 19.367V25.9722H44.5562C44.3881 24.7035 44.0839 23.6966 43.6489 22.9434C43.214 22.1928 42.5922 21.5972 41.7836 21.1538C40.9778 20.7131 40.1425 20.4915 39.2779 20.4915C38.3012 20.4915 37.4953 20.7906 36.8576 21.3862C36.2198 21.9818 35.8996 22.6603 35.8996 23.4215C35.8996 24.0037 36.1024 24.5353 36.5053 25.0134C37.0871 25.7185 38.4693 26.656 40.6575 27.8312C42.4401 28.7901 43.6569 29.5246 44.3081 30.0347C44.9592 30.5475 45.4609 31.1485 45.8131 31.8456C46.1653 32.5427 46.3415 33.2692 46.3415 34.0278C46.3415 35.4728 45.7811 36.7201 44.6603 37.7671C43.5395 38.8141 42.0959 39.3376 40.332 39.3376C39.7796 39.3376 39.2566 39.2949 38.7709 39.2121C38.48 39.164 37.8769 38.9931 36.9616 38.6993C36.0463 38.4055 35.4673 38.2559 35.2244 38.2559C34.9816 38.2559 34.8055 38.3253 34.6694 38.4669C34.5333 38.6084 34.4319 38.8996 34.3678 39.3403H33.8475V32.7911H34.3678C34.6107 34.1613 34.9389 35.187 35.3525 35.8681C35.7661 36.5491 36.3959 37.1154 37.2445 37.5641C38.0931 38.0155 39.0244 38.2399 40.0384 38.2399C41.2099 38.2399 42.1386 37.93 42.819 37.3104C43.4995 36.6907 43.8384 35.9589 43.8384 35.1122C43.8384 34.6421 43.7103 34.1693 43.4515 33.6886C43.1926 33.2105 42.7923 32.7644 42.248 32.3504C41.8824 32.07 40.8817 31.469 39.2512 30.5556C37.6208 29.6421 36.4573 28.9103 35.7688 28.3654C35.0803 27.8205 34.5573 27.2196 34.1997 26.5625C33.8421 25.9055 33.666 25.1816 33.666 24.3937C33.666 23.0235 34.1917 21.843 35.2431 20.852C36.2945 19.8611 37.6314 19.367 39.2539 19.367C40.2679 19.367 41.3407 19.6154 42.4775 20.1122C43.0032 20.3472 43.3741 20.4647 43.5902 20.4647C43.8331 20.4647 44.0332 20.3926 44.188 20.2457C44.3427 20.1015 44.4682 19.8077 44.5616 19.3643H45.0819L45.0766 19.367Z" fill="#BFBFBF"/>
<path d="M59.6837 38.9023L52.3105 22.8312V35.593C52.3105 36.7655 52.436 37.5 52.6895 37.7912C53.0364 38.1865 53.5861 38.3814 54.3359 38.3814H55.0111V38.9023H48.3691V38.3814H49.0443C49.8502 38.3814 50.4239 38.1384 50.7601 37.6496C50.9656 37.3504 51.0697 36.664 51.0697 35.593V23.1143C51.0697 22.2703 50.9763 21.6587 50.7895 21.2821C50.6587 21.0096 50.4159 20.7826 50.0637 20.5983C49.7114 20.414 49.1457 20.3232 48.3691 20.3232V19.8024H53.7729L60.6977 34.7463L67.5077 19.8024H72.9115V20.3232H72.2497C71.4331 20.3232 70.8567 20.5663 70.5178 21.055C70.3124 21.3569 70.2083 22.0406 70.2083 23.1117V35.5903C70.2083 36.7628 70.339 37.4973 70.6032 37.7885C70.9501 38.1838 71.4998 38.3788 72.2497 38.3788H72.9115V38.8996H64.8045V38.3788H65.4797C66.2962 38.3788 66.8673 38.1357 67.1955 37.6469C67.401 37.3478 67.5051 36.6613 67.5051 35.5903V22.8285L60.1453 38.8996H59.681L59.6837 38.9023Z" fill="#BFBFBF"/>
<path d="M82.4088 38.3814V38.9023H74.2324V38.3814H74.9076C75.6948 38.3814 76.2685 38.1517 76.6234 37.6923C76.8476 37.3932 76.9623 36.6694 76.9623 35.5235V23.1838C76.9623 22.2169 76.9009 21.5785 76.7782 21.2687C76.6848 21.0337 76.4927 20.8334 76.2018 20.6624C75.7882 20.4381 75.3585 20.3232 74.9076 20.3232H74.2324V19.8024H82.4088V20.3232H81.7203C80.9411 20.3232 80.3753 20.5529 80.0178 21.0123C79.7829 21.3141 79.6655 22.0353 79.6655 23.1811V35.5209C79.6655 36.4877 79.7269 37.1261 79.8497 37.4359C79.9431 37.671 80.1405 37.8713 80.4394 38.0422C80.8423 38.2666 81.2693 38.3814 81.7203 38.3814H82.4088Z" fill="#BFBFBF"/>
<path d="M99.7893 19.8024L100 24.2815H99.4664C99.3623 23.4936 99.2209 22.93 99.0448 22.5908C98.7539 22.046 98.367 21.6453 97.884 21.3862C97.401 21.1272 96.7659 20.999 95.976 20.999H93.2888V35.5903C93.2888 36.7628 93.4142 37.4973 93.6677 37.7885C94.0253 38.1838 94.5723 38.3788 95.3142 38.3788H95.976V38.8996H87.885V38.3788H88.5602C89.3661 38.3788 89.9398 38.1357 90.276 37.6469C90.4815 37.3478 90.5856 36.6613 90.5856 35.5903V20.999H88.2906C87.3994 20.999 86.7669 21.0657 86.3907 21.1966C85.9023 21.3756 85.486 21.7174 85.1391 22.2249C84.7922 22.7324 84.5841 23.4188 84.52 24.2815H83.9863L84.2105 19.8024H99.7893Z" fill="#BFBFBF"/>
<path d="M44.0102 18.5657V25.171H43.4898C43.3217 23.9023 43.0175 22.8953 42.5825 22.1421C42.1476 21.3916 41.5258 20.796 40.7172 20.3526C39.9113 19.9119 39.0761 19.6902 38.2115 19.6902C37.2348 19.6902 36.4289 19.9893 35.7912 20.585C35.1534 21.1806 34.8332 21.859 34.8332 22.6202C34.8332 23.2025 35.036 23.734 35.4389 24.2121C36.0206 24.9172 37.4029 25.8547 39.5911 27.0299C41.3737 27.9888 42.5905 28.7233 43.2417 29.2335C43.8928 29.7463 44.3945 30.3472 44.7467 31.0444C45.0989 31.7415 45.2751 32.468 45.2751 33.2265C45.2751 34.6715 44.7147 35.9188 43.5939 36.9658C42.4731 38.0128 41.0295 38.5363 39.2656 38.5363C38.7132 38.5363 38.1901 38.4936 37.7045 38.4108C37.4136 38.3627 36.8105 38.1918 35.8952 37.898C34.9799 37.6042 34.4009 37.4546 34.158 37.4546C33.9152 37.4546 33.7391 37.5241 33.603 37.6656C33.4669 37.8072 33.3655 38.0983 33.3014 38.539H32.7811V31.9899H33.3014C33.5443 33.3601 33.8725 34.3857 34.2861 35.0668C34.6997 35.7479 35.3295 36.3141 36.1781 36.7628C37.0267 37.2142 37.958 37.4386 38.972 37.4386C40.1435 37.4386 41.0722 37.1288 41.7526 36.5091C42.4331 35.8894 42.772 35.1576 42.772 34.3109C42.772 33.8408 42.6439 33.3681 42.3851 32.8873C42.1262 32.4092 41.7259 31.9632 41.1816 31.5492C40.816 31.2687 39.8153 30.6678 38.1848 29.7543C36.5543 28.8408 35.3909 28.109 34.7024 27.5641C34.0139 27.0192 33.4909 26.4183 33.1333 25.7612C32.7757 25.1042 32.5996 24.3804 32.5996 23.5924C32.5996 22.2222 33.1253 21.0417 34.1767 20.0508C35.2281 19.0598 36.565 18.5657 38.1875 18.5657C39.2015 18.5657 40.2743 18.8141 41.411 19.3109C41.9367 19.546 42.3077 19.6635 42.5238 19.6635C42.7667 19.6635 42.9668 19.5914 43.1216 19.4445C43.2763 19.3002 43.4018 19.0064 43.4952 18.563H44.0155L44.0102 18.5657Z" fill="#000081"/>
<path d="M58.6172 38.101L51.2441 22.0299V34.7917C51.2441 35.9642 51.3696 36.6987 51.6231 36.9899C51.97 37.3852 52.5197 37.5802 53.2695 37.5802H53.9447V38.101H47.3027V37.5802H47.9779C48.7838 37.5802 49.3575 37.3371 49.6937 36.8483C49.8992 36.5492 50.0033 35.8627 50.0033 34.7917V22.3131C50.0033 21.469 49.9099 20.8574 49.7231 20.4808C49.5923 20.2084 49.3495 19.9813 48.9972 19.797C48.645 19.6127 48.0793 19.5219 47.3027 19.5219V19.0011H52.7065L59.6313 33.945L66.4413 19.0011H71.8451V19.5219H71.1833C70.3667 19.5219 69.7903 19.765 69.4514 20.2538C69.246 20.5556 69.1419 21.2393 69.1419 22.3104V34.789C69.1419 35.9616 69.2726 36.6961 69.5368 36.9872C69.8837 37.3825 70.4334 37.5775 71.1833 37.5775H71.8451V38.0983H63.7381V37.5775H64.4133C65.2298 37.5775 65.8009 37.3344 66.1291 36.8456C66.3346 36.5465 66.4387 35.8601 66.4387 34.789V22.0273L59.0789 38.0983H58.6146L58.6172 38.101Z" fill="#000081"/>
<path d="M81.3424 37.5802V38.101H73.166V37.5802H73.8411C74.6284 37.5802 75.2021 37.3505 75.557 36.8911C75.7812 36.5919 75.8959 35.8681 75.8959 34.7223V22.3825C75.8959 21.4156 75.8345 20.7773 75.7118 20.4674C75.6184 20.2324 75.4263 20.0321 75.1354 19.8611C74.7218 19.6368 74.2921 19.5219 73.8411 19.5219H73.166V19.0011H81.3424V19.5219H80.6539C79.8747 19.5219 79.3089 19.7516 78.9514 20.211C78.7165 20.5129 78.5991 21.234 78.5991 22.3798V34.7196C78.5991 35.6865 78.6605 36.3248 78.7832 36.6346C78.8766 36.8697 79.0741 37.07 79.373 37.2409C79.7759 37.4653 80.2029 37.5802 80.6539 37.5802H81.3424Z" fill="#000081"/>
<path d="M98.7229 19.0011L98.9337 23.4803H98.4C98.2959 22.6923 98.1545 22.1288 97.9784 21.7896C97.6875 21.2447 97.3006 20.844 96.8176 20.585C96.3346 20.3259 95.6994 20.1977 94.9096 20.1977H92.2224V34.789C92.2224 35.9616 92.3478 36.6961 92.6013 36.9872C92.9589 37.3825 93.5059 37.5775 94.2478 37.5775H94.9096V38.0983H86.8186V37.5775H87.4938C88.2996 37.5775 88.8734 37.3344 89.2096 36.8457C89.4151 36.5465 89.5192 35.8601 89.5192 34.789V20.1977H87.2242C86.3329 20.1977 85.7005 20.2645 85.3242 20.3953C84.8359 20.5743 84.4196 20.9162 84.0727 21.4236C83.7258 21.9311 83.5177 22.6176 83.4536 23.4803H82.9199L83.1441 19.0011H98.7229Z" fill="#000081"/>
<path d="M22.9233 25.7265C24.2379 25.7265 25.3036 24.6598 25.3036 23.344C25.3036 22.0282 24.2379 20.9615 22.9233 20.9615C21.6087 20.9615 20.543 22.0282 20.543 23.344C20.543 24.6598 21.6087 25.7265 22.9233 25.7265Z" fill="#CD1719" stroke="black" stroke-miterlimit="10"/>
<path d="M21.82 39.383C26.2764 39.4097 25.8495 39.1159 26.3565 39.0625C24.3818 33.4268 24.4885 31.2633 24.3124 27.4599C24.2911 27.3397 24.2804 27.2249 24.2777 27.1127C23.6666 27.1715 23.269 27.3504 22.1136 27.0967C21.9001 30.9963 21.7133 29.1266 21.82 39.383Z" fill="#CD1719" stroke="black"/>
</g>
<defs>
<radialGradient id="paint0_radial_38_583" cx="0" cy="0" r="1" gradientUnits="userSpaceOnUse" gradientTransform="translate(25.0833 27.2303) scale(10.6634 10.6731)">
<stop stop-opacity="0.9"/>
<stop offset="0.85" stop-color="#909090" stop-opacity="0.39"/>
<stop offset="1" stop-color="white" stop-opacity="0"/>
</radialGradient>
<radialGradient id="paint1_radial_38_583" cx="0" cy="0" r="1" gradientUnits="userSpaceOnUse" gradientTransform="translate(24.0589 24.6135) scale(3.42371 3.42682)">
<stop/>
<stop offset="1" stop-color="white" stop-opacity="0"/>
</radialGradient>
<linearGradient id="paint2_linear_38_583" x1="18.0256" y1="14.5887" x2="16.3471" y2="19.2004" gradientUnits="userSpaceOnUse">
<stop offset="0.27" stop-color="#CD1719"/>
<stop offset="0.41" stop-color="#CA1618"/>
<stop offset="0.51" stop-color="#C11517"/>
<stop offset="0.6" stop-color="#B21315"/>
<stop offset="0.68" stop-color="#9C1113"/>
<stop offset="0.75" stop-color="#800E0F"/>
<stop offset="0.82" stop-color="#5E0A0B"/>
<stop offset="0.89" stop-color="#350606"/>
<stop offset="0.95" stop-color="#070000"/>
<stop offset="0.96"/>
</linearGradient>
<clipPath id="clip0_38_583">
<rect width="100" height="50" fill="white"/>
</clipPath>
</defs>
</svg>
