<svg width="140" height="70" viewBox="0 0 140 70" fill="none" xmlns="http://www.w3.org/2000/svg">
<g clip-path="url(#clip0_108_17)">
<path d="M49.5569 5.40332L42.9817 16.6961" stroke="#2782C4" stroke-width="0.75" stroke-miterlimit="10"/>
<path d="M45.2232 2.86058L39.9929 14.0785" stroke="#2782C4" stroke-width="0.75" stroke-miterlimit="10"/>
<path d="M39.9931 1.29007L37.0044 12.9567" stroke="#2782C4" stroke-width="0.75" stroke-miterlimit="10"/>
<path d="M29.6819 0.542206L30.6532 15.2751" stroke="#2782C4" stroke-width="0.75" stroke-miterlimit="10"/>
<path d="M24.377 1.29007L28.0755 16.1725" stroke="#2782C4" stroke-width="0.75" stroke-miterlimit="10"/>
<path d="M18.9561 3.11111L23.3719 12.6576" stroke="#2782C4" stroke-miterlimit="10"/>
<path d="M16.0083 4.80502L21.5001 14.8264" stroke="#2782C4" stroke-width="0.75" stroke-miterlimit="10"/>
<path d="M12.0483 1.29007L16.8303 9.81571" stroke="#2782C4" stroke-width="0.75" stroke-miterlimit="10"/>
<path d="M11.3757 8.46956L18.3245 16.1726" stroke="#2782C4" stroke-width="0.75" stroke-miterlimit="10"/>
<path d="M8.38721 11.0497L16.0085 18.1918" stroke="#2782C4" stroke-width="0.75" stroke-miterlimit="10"/>
<path d="M1.66235 10.5636L9.88139 16.696" stroke="#2782C4" stroke-width="0.75" stroke-miterlimit="10"/>
<path d="M5.17432 15.2751L13.7669 21.3328" stroke="#2782C4" stroke-width="0.75" stroke-miterlimit="10"/>
<path d="M1.66235 19.5379L13.2437 25.8761" stroke="#2782C4" stroke-width="0.75" stroke-miterlimit="10"/>
<path d="M13.7668 24.4738L16.3073 25.5956" stroke="#2782C4" stroke-width="0.75" stroke-miterlimit="10"/>
<path d="M1.0647 44.2922L13.2438 38.9824" stroke="#2782C4" stroke-width="0.75" stroke-miterlimit="10"/>
<path d="M4.427 48.4802L14.4393 41.9738" stroke="#2782C4" stroke-width="0.75" stroke-miterlimit="10"/>
<path d="M1.66235 56.3328L16.3072 44.6661" stroke="#2782C4" stroke-width="0.75" stroke-miterlimit="10"/>
<path d="M20.3421 45.227L10.4792 56.3328" stroke="#2782C4" stroke-width="0.75" stroke-miterlimit="10"/>
<path d="M21.5001 47.3584L14.4392 58.9503" stroke="#2782C4" stroke-width="0.75" stroke-miterlimit="10"/>
<path d="M18.7544 61.3435L22.0607 54.3136" stroke="#2782C4" stroke-width="0.75" stroke-miterlimit="10"/>
<path d="M23.9285 55.0614L17.2786 69.9439" stroke="#2782C4" stroke-width="0.75" stroke-miterlimit="10"/>
<path d="M29.8313 52.3691L28.0754 69.4952" stroke="#2782C4" stroke-width="0.75"/>
<path d="M31.9983 64.6677C14.4394 64.4284 0.280273 50.1068 0.280273 32.476C0.280273 14.8451 14.6823 0.280441 32.4466 0.280441C40.5685 0.280441 47.988 3.29433 53.6479 8.26388" stroke="#2782C4" stroke-width="1.5" stroke-miterlimit="10"/>
<path d="M31.6247 59.6907C16.9612 59.3729 5.17432 47.3771 5.17432 32.6255C5.17432 17.8739 17.2862 5.55287 32.2224 5.55287C37.7217 5.55287 42.8399 7.19443 47.1101 10.0176" stroke="#2782C4" stroke-width="1.5" stroke-miterlimit="10"/>
<path d="M33.7093 56.8451C33.2909 56.8675 32.865 56.8787 32.4391 56.8787C19.0533 56.8787 8.20044 46.016 8.20044 32.618C8.20044 19.2201 19.0533 8.35736 32.4391 8.35736C39.7279 8.35736 46.262 11.5769 50.7078 16.6699" stroke="#2782C4" stroke-width="1.5" stroke-miterlimit="10"/>
<path d="M37.4339 9.84187C48.0029 12.0069 55.9492 21.3627 55.9492 32.5807C55.9492 45.399 45.567 55.7906 32.7603 55.7906C22.2362 55.7906 13.3522 48.7756 10.5166 39.1656" stroke="#2782C4" stroke-width="1.5" stroke-miterlimit="10"/>
<path d="M49.897 19.3734C52.8297 23.1202 54.5631 27.8429 54.5258 32.9733C54.5183 34.312 54.3876 35.6207 54.1485 36.8921" stroke="#2782C4" stroke-width="1.5" stroke-miterlimit="10"/>
<path d="M19.3371 49.774C14.2376 45.7804 10.9612 39.5657 10.9612 32.5844C10.9612 20.5363 20.7194 10.7655 32.7603 10.7655C39.3505 10.7655 45.2607 13.6934 49.2581 18.3226" stroke="#CDD6EF" stroke-width="2.5" stroke-miterlimit="10"/>
<path d="M37.0268 53.9808C35.6482 54.2537 34.2211 54.3996 32.7603 54.3996C27.6982 54.3996 23.0357 52.672 19.3372 49.774" stroke="#2782C4" stroke-width="1.5" stroke-miterlimit="10"/>
<path d="M31.845 52.8889C20.9398 52.5598 12.1978 43.6079 12.1978 32.6106C12.1978 21.6132 21.2723 12.321 32.4651 12.321C37.602 12.321 42.2944 14.2356 45.8659 17.3878" stroke="#2782C4" stroke-width="1.5" stroke-miterlimit="10"/>
<path d="M51.6269 32.5395C51.6269 42.9012 43.236 51.2997 32.8838 51.2997C22.5315 51.2997 14.1406 42.9012 14.1406 32.5395C14.1406 22.1779 22.5315 13.7794 32.8838 13.7794C43.236 13.7794 51.6269 22.1779 51.6269 32.5395Z" stroke="#2782C4" stroke-width="1.5" stroke-miterlimit="10"/>
<path d="M33.16 54.3136C28.2883 54.4071 23.7604 52.8889 20.0768 50.2564L19.2063 51.3446C23.1328 54.1752 27.9745 55.8056 33.1824 55.7046C34.9009 55.6709 36.5746 55.4503 38.1811 55.0652L37.1761 53.8611C35.876 54.1303 34.5311 54.2911 33.1562 54.3173L33.16 54.3136Z" fill="#00518B"/>
<path d="M51.0587 18.3339L50.0874 19.3547C52.8893 23.0267 54.5556 27.6074 54.5556 32.5844C54.5556 34.0577 54.4024 35.4973 54.1222 36.8884L55.3438 37.8456C55.7361 36.1554 55.9453 34.3942 55.9453 32.5844C55.9453 27.211 54.1185 22.2676 51.055 18.3339H51.0587Z" fill="#00518B"/>
<path d="M10.7222 56.2094C11.828 57.2228 13.0048 58.1613 14.2451 59.0176L16.6623 54.7623C15.6386 54.0406 14.6673 53.2553 13.7557 52.4028L10.7222 56.2094Z" fill="#CD1719"/>
<path d="M14.6636 12.0331L11.2565 8.25641C10.2067 9.17628 9.22038 10.1635 8.29761 11.2105L11.9738 14.6768C12.8069 13.7345 13.7072 12.852 14.6636 12.0331Z" fill="#CD1719"/>
<path d="M24.8515 58.6774L23.3721 63.3665C25.9536 64.1255 28.6696 64.5668 31.4753 64.649L31.281 59.6757C29.0619 59.601 26.9063 59.2569 24.8552 58.6774H24.8515Z" fill="#CD1719"/>
<path d="M19.8455 11.8836L21.0372 14.1907C21.762 13.727 22.5129 13.3008 23.29 12.9231L22.3934 10.5374C21.5154 10.9375 20.6636 11.3825 19.8455 11.8836Z" fill="#CD1719"/>
<path d="M20.2488 12.7286L21.448 14.8451C22.1317 14.3964 22.8378 13.9776 23.5775 13.6074L22.6585 11.4087C21.8253 11.805 21.0221 12.2425 20.2488 12.7286Z" fill="#CD1719"/>
<path d="M46.273 36.3387C44.831 42.4824 39.3242 47.0593 32.7453 47.0593C31.3592 47.0593 30.0218 46.8536 28.759 46.476L28.6357 48.9663C29.7005 49.1832 30.7988 49.2991 31.9271 49.2991C39.8062 49.2991 46.3926 43.7762 48.0439 36.391L46.2768 36.3387H46.273Z" fill="#CDD6EF"/>
<path d="M45.8959 32.7751C45.8959 40.4594 39.6718 46.6854 31.9982 46.6854C24.3246 46.6854 18.1006 40.4594 18.1006 32.7751C18.1006 25.0908 24.3246 18.8649 31.9982 18.8649C39.6718 18.8649 45.8959 25.0946 45.8959 32.7751Z" stroke="#CDD6EF" stroke-width="5" stroke-miterlimit="10"/>
<path d="M48.7713 35.6026C50.1954 26.5823 44.0442 18.1144 35.0322 16.689C26.0201 15.2636 17.5599 21.4204 16.1358 30.4406C14.7116 39.4608 20.8628 47.9287 29.8749 49.3542C38.8869 50.7796 47.3472 44.6228 48.7713 35.6026Z" stroke="#2782C4" stroke-miterlimit="10"/>
<path d="M28.6322 47.8109C22.8453 46.8574 18.0297 42.5908 16.4531 36.836" stroke="#2782C4" stroke-miterlimit="10"/>
<path d="M17.473 35.2057C17.346 34.4167 17.2825 33.6052 17.2825 32.7788C17.2825 24.3729 24.0893 17.5598 32.4914 17.5598C40.8935 17.5598 47.6966 24.3729 47.6966 32.7788C47.6966 41.1848 41.5137 47.3547 33.6645 47.9567" stroke="#2782C4" stroke-miterlimit="10"/>
<path d="M31.5537 45.5411C24.6535 45.3803 19.1094 39.734 19.1094 32.7901C19.1094 27.1549 22.7594 22.3723 27.8253 20.6859" stroke="#2782C4" stroke-width="3" stroke-miterlimit="10"/>
<path d="M48.4437 32.7676C48.4437 41.899 41.0503 49.2992 31.9272 49.2992C22.804 49.2992 15.4106 41.899 15.4106 32.7676C15.4106 23.6362 22.804 16.2361 31.9272 16.2361C41.0503 16.2361 48.4437 23.6362 48.4437 32.7676Z" stroke="#CDD6EF" stroke-miterlimit="10"/>
<path d="M15.7805 33.0219C15.7805 34.2222 15.9113 35.3926 16.1541 36.5182L17.6784 35.172C17.5215 34.297 17.4355 33.3921 17.4355 32.4722C17.4355 25.8312 21.7356 20.1998 27.7019 18.2105V17.141C20.8165 19.1341 15.7805 25.4909 15.7805 33.0256V33.0219Z" fill="#2782C4"/>
<path d="M31.7739 15.2003L31.9234 20.1362" stroke="#2782C4" stroke-miterlimit="10"/>
<path d="M29.8313 16.1725L30.1675 20.1362" stroke="#2782C4" stroke-miterlimit="10"/>
<path d="M44.6255 27.3157L47.9131 26.6426" stroke="#2782C4" stroke-miterlimit="10"/>
<path d="M42.9817 38.9824L47.1099 41.226" stroke="#2782C4" stroke-miterlimit="10"/>
<path d="M42.0105 40.1042L45.8697 43.6939" stroke="#2782C4" stroke-miterlimit="10"/>
<path d="M32.8649 57.8248C39.1039 57.8622 38.5061 57.4509 39.2159 57.3761C36.4514 49.4861 36.6008 46.4573 36.3542 41.1325C36.3243 40.9642 36.3094 40.8034 36.3057 40.6464C35.4501 40.7286 34.8935 40.9792 33.2758 40.6239C32.9769 46.0833 32.7154 43.4658 32.8649 57.8248Z" fill="#BFBFBF" stroke="#BFBFBF"/>
<path d="M50.0465 38.1223C50.0465 46.375 43.3629 53.0646 35.1177 53.0646C26.8725 53.0646 20.189 46.375 20.189 38.1223C20.189 29.8697 26.8725 23.18 35.1177 23.18C43.3629 23.18 50.0465 29.8697 50.0465 38.1223Z" fill="url(#paint0_radial_108_17)"/>
<path d="M44.0241 32.9359C44.0241 39.7228 38.5248 45.227 31.7441 45.227C24.9634 45.227 19.4641 39.7265 19.4641 32.9359C19.4641 26.1453 24.9634 20.6448 31.7441 20.6448C38.5248 20.6448 44.0241 26.149 44.0241 32.9359Z" fill="#1E1E1E"/>
<path d="M38.8722 31.5187C38.8722 36.2377 35.0504 40.063 30.3357 40.063C25.6209 40.063 21.7991 36.2377 21.7991 31.5187C21.7991 26.7997 25.6209 22.9743 30.3357 22.9743C35.0504 22.9743 38.8722 26.7997 38.8722 31.5187Z" fill="white"/>
<path d="M38.2613 35.8774C39.0424 33.3458 37.6251 30.6597 35.0957 29.878C32.5663 29.0962 29.8827 30.5148 29.1017 33.0465C28.3207 35.5781 29.738 38.2642 32.2673 39.0459C34.7967 39.8277 37.4803 38.4091 38.2613 35.8774Z" fill="url(#paint1_radial_108_17)"/>
<path d="M29.0094 29.1106L21.5488 19.0817L16.8303 24.4738L29.0094 29.1106Z" fill="url(#paint2_linear_108_17)"/>
<path d="M63.1071 27.1138V36.3611H62.3786C62.1433 34.5849 61.7174 33.1752 61.1084 32.1207C60.4995 31.07 59.629 30.2361 58.497 29.6154C57.3688 28.9984 56.1994 28.688 54.989 28.688C53.6216 28.688 52.4934 29.1068 51.6005 29.9407C50.7076 30.7746 50.2593 31.7243 50.2593 32.7901C50.2593 33.6052 50.5432 34.3493 51.1073 35.0187C51.9218 36.0059 53.857 37.3184 56.9204 38.9637C59.416 40.3061 61.1196 41.3344 62.0312 42.0486C62.9427 42.7665 63.6451 43.6079 64.1382 44.5839C64.6314 45.5598 64.878 46.5769 64.878 47.6389C64.878 49.6618 64.0934 51.4081 62.5243 52.8739C60.9552 54.3397 58.9341 55.0726 56.4647 55.0726C55.6913 55.0726 54.9591 55.0128 54.2791 54.8969C53.8719 54.8296 53.0276 54.5903 51.7462 54.1789C50.4648 53.7676 49.6541 53.5582 49.3141 53.5582C48.9741 53.5582 48.7276 53.6554 48.537 53.8536C48.3465 54.0518 48.2045 54.4594 48.1149 55.0764H47.3864V45.9076H48.1149C48.4548 47.8258 48.9144 49.2617 49.4934 50.2153C50.0725 51.1688 50.9542 51.9615 52.1422 52.5897C53.3302 53.2217 54.6341 53.5358 56.0537 53.5358C57.6938 53.5358 58.9939 53.102 59.9465 52.2345C60.8992 51.367 61.3737 50.3424 61.3737 49.157C61.3737 48.4989 61.1943 47.8371 60.832 47.164C60.4696 46.4946 59.9092 45.8702 59.1471 45.2906C58.6352 44.898 57.2343 44.0566 54.9516 42.7778C52.669 41.4989 51.0401 40.4743 50.0762 39.7115C49.1124 38.9487 48.3801 38.1074 47.8795 37.1875C47.3789 36.2676 47.1323 35.2543 47.1323 34.1512C47.1323 32.2329 47.8683 30.5801 49.3403 29.1928C50.8122 27.8055 52.6839 27.1138 54.9553 27.1138C56.375 27.1138 57.8768 27.4615 59.4683 28.157C60.2043 28.4861 60.7236 28.6506 61.0262 28.6506C61.3662 28.6506 61.6464 28.5497 61.8631 28.344C62.0798 28.1421 62.2553 27.7308 62.3861 27.11H63.1146L63.1071 27.1138Z" fill="#BFBFBF"/>
<path d="M83.5576 54.4631L73.2352 31.9637V49.8301C73.2352 51.4717 73.4108 52.5 73.7657 52.9076C74.2514 53.461 75.021 53.734 76.0708 53.734H77.016V54.4631H67.7173V53.734H68.6625C69.7907 53.734 70.5939 53.3937 71.0647 52.7094C71.3523 52.2906 71.498 51.3296 71.498 49.8301V32.36C71.498 31.1784 71.3673 30.3221 71.1058 29.7949C70.9227 29.4135 70.5827 29.0956 70.0896 28.8376C69.5965 28.5796 68.8044 28.4524 67.7173 28.4524V27.7233H75.2825L84.9773 48.6448L94.5113 27.7233H102.077V28.4524H101.15C100.007 28.4524 99.1999 28.7927 98.7255 29.477C98.4378 29.8996 98.2921 30.8568 98.2921 32.3563V49.8264C98.2921 51.4679 98.4751 52.4963 98.845 52.9038C99.3307 53.4573 100.1 53.7302 101.15 53.7302H102.077V54.4594H90.7268V53.7302H91.672C92.8152 53.7302 93.6147 53.3899 94.0742 52.7057C94.3619 52.2869 94.5076 51.3258 94.5076 49.8264V31.9599L84.2039 54.4594H83.5539L83.5576 54.4631Z" fill="#BFBFBF"/>
<path d="M115.373 53.734V54.4631H103.926V53.734H104.871C105.973 53.734 106.776 53.4124 107.273 52.7692C107.587 52.3504 107.748 51.3371 107.748 49.7329V32.4573C107.748 31.1036 107.662 30.2099 107.49 29.7762C107.359 29.4471 107.09 29.1667 106.683 28.9273C106.104 28.6132 105.502 28.4524 104.871 28.4524H103.926V27.7233H115.373V28.4524H114.409C113.318 28.4524 112.526 28.774 112.025 29.4172C111.696 29.8397 111.532 30.8494 111.532 32.4535V49.7292C111.532 51.0828 111.618 51.9765 111.79 52.4103C111.921 52.7393 112.197 53.0198 112.616 53.2591C113.18 53.5732 113.777 53.734 114.409 53.734H115.373Z" fill="#BFBFBF"/>
<path d="M139.705 27.7233L140 33.9941H139.253C139.107 32.891 138.909 32.102 138.662 31.6271C138.255 30.8643 137.713 30.3034 137.037 29.9407C136.361 29.578 135.472 29.3985 134.366 29.3985H130.604V49.8264C130.604 51.4679 130.78 52.4963 131.134 52.9038C131.635 53.4573 132.401 53.7302 133.44 53.7302H134.366V54.4594H123.039V53.7302H123.984C125.112 53.7302 125.915 53.3899 126.386 52.7057C126.674 52.2869 126.819 51.3258 126.819 49.8264V29.3985H123.607C122.359 29.3985 121.473 29.492 120.947 29.6752C120.263 29.9257 119.68 30.4044 119.194 31.1148C118.709 31.8253 118.417 32.7863 118.328 33.9941H117.581L117.894 27.7233H139.705Z" fill="#BFBFBF"/>
<path d="M61.6127 25.992V35.2393H60.8842C60.6489 33.4631 60.223 32.0534 59.614 30.9989C59.0051 29.9482 58.1346 29.1143 57.0026 28.4936C55.8744 27.8766 54.705 27.5662 53.4946 27.5662C52.1272 27.5662 50.999 27.985 50.1061 28.8189C49.2132 29.6528 48.7649 30.6026 48.7649 31.6683C48.7649 32.4834 49.0488 33.2276 49.613 33.8969C50.4274 34.8841 52.3626 36.1966 55.4261 37.8419C57.9217 39.1843 59.6252 40.2126 60.5368 40.9268C61.4484 41.6448 62.1507 42.4861 62.6439 43.4621C63.137 44.438 63.3836 45.4551 63.3836 46.5171C63.3836 48.5401 62.599 50.2863 61.0299 51.7521C59.4609 53.2179 57.4397 53.9508 54.9703 53.9508C54.1969 53.9508 53.4647 53.891 52.7848 53.7751C52.3775 53.7078 51.5332 53.4685 50.2518 53.0571C48.9704 52.6458 48.1597 52.4364 47.8197 52.4364C47.4797 52.4364 47.2332 52.5336 47.0426 52.7318C46.8521 52.93 46.7101 53.3376 46.6205 53.9546H45.892V44.7858H46.6205C46.9605 46.704 47.42 48.1399 47.999 49.0935C48.5781 50.047 49.4598 50.8397 50.6478 51.4679C51.8358 52.0999 53.1397 52.414 54.5593 52.414C56.1994 52.414 57.4995 51.9802 58.4522 51.1127C59.4048 50.2452 59.8793 49.2206 59.8793 48.0352C59.8793 47.3771 59.7 46.7153 59.3376 46.0422C58.9752 45.3728 58.4148 44.7484 57.6527 44.1688C57.1409 43.7762 55.7399 42.9348 53.4572 41.656C51.1746 40.3771 49.5457 39.3526 48.5818 38.5897C47.618 37.8269 46.8857 36.9856 46.3851 36.0657C45.8845 35.1458 45.6379 34.1325 45.6379 33.0294C45.6379 31.1111 46.3739 29.4583 47.8459 28.071C49.3178 26.6837 51.1895 25.992 53.461 25.992C54.8806 25.992 56.3825 26.3397 57.974 27.0352C58.7099 27.3643 59.2292 27.5288 59.5318 27.5288C59.8718 27.5288 60.152 27.4279 60.3687 27.2222C60.5854 27.0203 60.761 26.609 60.8917 25.9882H61.6202L61.6127 25.992Z" fill="#000081"/>
<path d="M82.0632 53.3413L71.7409 30.8419V48.7083C71.7409 50.3499 71.9164 51.3782 72.2714 51.7858C72.757 52.3392 73.5266 52.6122 74.5764 52.6122H75.5216V53.3413H66.2229V52.6122H67.1681C68.2963 52.6122 69.0996 52.2719 69.5703 51.5876C69.858 51.1688 70.0037 50.2078 70.0037 48.7083V31.2382C70.0037 30.0566 69.8729 29.2003 69.6114 28.6731C69.4283 28.2917 69.0884 27.9738 68.5952 27.7158C68.1021 27.4578 67.3101 27.3307 66.2229 27.3307V26.6015H73.7881L83.4829 47.523L93.0169 26.6015H100.582V27.3307H99.6557C98.5125 27.3307 97.7055 27.6709 97.2311 28.3552C96.9434 28.7778 96.7977 29.735 96.7977 31.2345V48.7046C96.7977 50.3461 96.9808 51.3745 97.3506 51.782C97.8363 52.3355 98.6059 52.6084 99.6557 52.6084H100.582V53.3376H89.2325V52.6084H90.1776C91.3208 52.6084 92.1203 52.2682 92.5798 51.5839C92.8675 51.1651 93.0132 50.2041 93.0132 48.7046V30.8381L82.7095 53.3376H82.0595L82.0632 53.3413Z" fill="#000081"/>
<path d="M113.878 52.6122V53.3413H102.431V52.6122H103.377C104.479 52.6122 105.282 52.2906 105.779 51.6474C106.093 51.2286 106.253 50.2153 106.253 48.6111V31.3355C106.253 29.9818 106.167 29.0881 105.995 28.6544C105.865 28.3253 105.596 28.0449 105.189 27.8055C104.609 27.4914 104.008 27.3307 103.377 27.3307H102.431V26.6015H113.878V27.3307H112.914C111.824 27.3307 111.031 27.6522 110.531 28.2954C110.202 28.7179 110.038 29.7276 110.038 31.3317V48.6074C110.038 49.961 110.124 50.8547 110.296 51.2885C110.426 51.6175 110.703 51.898 111.121 52.1373C111.685 52.4514 112.283 52.6122 112.914 52.6122H113.878Z" fill="#000081"/>
<path d="M138.21 26.6015L138.505 32.8723H137.758C137.613 31.7692 137.415 30.9802 137.168 30.5053C136.761 29.7425 136.219 29.1816 135.543 28.8189C134.867 28.4562 133.978 28.2767 132.872 28.2767H129.11V48.7046C129.11 50.3461 129.285 51.3745 129.64 51.782C130.141 52.3355 130.907 52.6084 131.945 52.6084H132.872V53.3376H121.544V52.6084H122.49C123.618 52.6084 124.421 52.2682 124.892 51.5839C125.179 51.1651 125.325 50.2041 125.325 48.7046V28.2767H122.112C120.864 28.2767 119.979 28.3702 119.452 28.5534C118.769 28.8039 118.186 29.2826 117.7 29.993C117.214 30.7035 116.923 31.6645 116.833 32.8723H116.086L116.4 26.6015H138.21Z" fill="#000081"/>
<path d="M32.0915 36.0171C33.9319 36.0171 35.4239 34.5237 35.4239 32.6816C35.4239 30.8395 33.9319 29.3461 32.0915 29.3461C30.251 29.3461 28.759 30.8395 28.759 32.6816C28.759 34.5237 30.251 36.0171 32.0915 36.0171Z" fill="#CD1719" stroke="black" stroke-miterlimit="10"/>
<path d="M30.5487 55.1362C36.7877 55.1736 36.19 54.7623 36.8998 54.6875C34.1352 46.7975 34.2846 43.7687 34.0381 38.4439C34.0082 38.2756 33.9932 38.1149 33.9895 37.9578C33.134 38.0401 32.5773 38.2906 30.9597 37.9354C30.6608 43.3948 30.3993 40.7772 30.5487 55.1362Z" fill="#CD1719" stroke="black"/>
</g>
<defs>
<radialGradient id="paint0_radial_108_17" cx="0" cy="0" r="1" gradientUnits="userSpaceOnUse" gradientTransform="translate(35.1177 38.1223) scale(14.9288 14.9423)">
<stop stop-opacity="0.9"/>
<stop offset="0.85" stop-color="#909090" stop-opacity="0.39"/>
<stop offset="1" stop-color="white" stop-opacity="0"/>
</radialGradient>
<radialGradient id="paint1_radial_108_17" cx="0" cy="0" r="1" gradientUnits="userSpaceOnUse" gradientTransform="translate(33.6844 34.4589) scale(4.79319 4.79754)">
<stop/>
<stop offset="1" stop-color="white" stop-opacity="0"/>
</radialGradient>
<linearGradient id="paint2_linear_108_17" x1="25.2362" y1="20.4241" x2="22.8862" y2="26.8806" gradientUnits="userSpaceOnUse">
<stop offset="0.27" stop-color="#CD1719"/>
<stop offset="0.41" stop-color="#CA1618"/>
<stop offset="0.51" stop-color="#C11517"/>
<stop offset="0.6" stop-color="#B21315"/>
<stop offset="0.68" stop-color="#9C1113"/>
<stop offset="0.75" stop-color="#800E0F"/>
<stop offset="0.82" stop-color="#5E0A0B"/>
<stop offset="0.89" stop-color="#350606"/>
<stop offset="0.95" stop-color="#070000"/>
<stop offset="0.96"/>
</linearGradient>
<clipPath id="clip0_108_17">
<rect width="140" height="70" fill="white"/>
</clipPath>
</defs>
</svg>
