<svg width="268" height="104" viewBox="0 0 268 104" fill="none" xmlns="http://www.w3.org/2000/svg">
<g clip-path="url(#clip0_39_1027)">
<path d="M230.157 19.2488C212.883 31.6303 189.118 47.8062 159.662 46.5081C124.415 44.9105 78.4832 3.47233 74.7887 0.177246C73.9899 1.47531 73.0912 2.87322 72.0927 4.17128C68.9973 8.46488 65.203 12.1594 60.8096 15.055C66.1017 18.2503 77.3848 25.14 89.2671 30.8315C96.6561 34.4261 129.807 49.5036 157.565 50.8017C189.318 52.2995 226.362 36.8226 241.64 30.0327C237.047 27.137 233.152 23.5424 230.157 19.2488Z" fill="#FA9200"/>
<path d="M143.186 52.8987C95.5569 45.7095 52.2216 20.0477 45.7313 16.0537C44.4332 18.7497 42.8356 21.3458 41.0383 23.7422C38.1426 27.6364 34.548 30.9315 30.4541 33.5276C33.3498 35.0254 44.8326 38.8197 61.8073 43.6126C84.8729 50.1029 138.792 55.2951 143.885 55.8942L143.186 52.8987Z" fill="#B7B8B9"/>
<path d="M118.223 56.094C58.9118 51.401 39.2412 45.4099 15.277 38.7199C14.7777 43.2132 12.0817 48.705 7.68828 54.5962C5.49156 57.5917 2.89544 60.3875 0.0996094 62.784C5.99082 62.085 13.5795 61.6856 30.3545 60.7869C55.5169 59.389 111.134 59.0895 118.822 59.0895L118.223 56.094ZM162.457 55.2951L161.958 57.392C243.736 57.5917 267.201 61.3861 268 61.4859C264.305 58.7899 261.11 55.4948 258.414 51.8004C254.12 46.009 251.524 39.9181 251.025 35.4248C241.24 38.8197 221.07 45.7095 205.593 49.1044C187.62 52.9986 174.739 54.2966 162.757 54.5962L162.457 55.2951Z" fill="#B41414"/>
<path d="M24.2641 103.523V80.9569H24.1642L16.4757 103.523H13.2805L5.59196 80.9569H5.49211V103.523H2.29688V77.3623H7.88853L15.1776 98.6306H15.2775L22.5666 77.3623H27.9586V103.523H24.2641ZM33.5502 103.523V77.3623H47.3297V79.8586H37.744V88.6455H46.8304V91.2416H37.744V100.827H47.7291V103.523H33.5502ZM57.6143 103.523H51.7231V77.3623H57.6143C66.4012 77.3623 69.4966 81.556 69.4966 90.1432C69.4966 98.9301 66.8006 103.523 57.6143 103.523ZM61.6084 80.5575C60.3103 80.0583 59.0122 79.8586 57.7142 79.9584H56.0167V101.127H57.7142C64.8036 101.127 65.4027 96.1343 65.4027 90.2431C65.3028 86.948 65.1031 82.0553 61.6084 80.5575ZM74.4891 103.523V77.3623H78.6829V103.523H74.4891ZM97.7544 84.4517C97.7544 81.7557 96.656 79.2595 93.5607 79.2595C88.7678 79.2595 88.0689 85.7498 88.0689 89.3444C88.0689 94.2371 89.0674 101.327 95.358 101.327C97.6545 101.327 99.9511 100.428 101.649 98.8303V102.425C99.5517 103.623 97.0554 104.222 94.659 104.122C86.4712 104.122 83.6754 97.3325 83.6754 90.1432C83.6754 83.3534 86.2715 77.1626 93.9601 77.1626C98.7529 77.1626 102.647 79.559 102.647 84.6514H97.7544V84.4517ZM121.319 103.523L118.923 95.7349H109.936L107.54 103.523H103.845L112.532 77.3623H116.826L125.613 103.523H121.319ZM114.43 81.1566L110.635 93.3385H118.124L114.43 81.1566ZM129.008 103.523V77.3623H133.201V100.827H142.887V103.523H129.008ZM166.252 103.523H161.959L153.272 77.3623H157.565L164.355 98.5307H164.455L171.245 77.3623H174.939L166.252 103.523ZM190.216 103.523L187.82 95.7349H178.833L176.437 103.523H172.742L181.43 77.3623H185.723L194.51 103.523H190.216ZM183.327 81.1566L179.532 93.3385H187.021L183.327 81.1566ZM197.805 103.523V77.3623H201.999V100.827H211.684V103.523H197.805ZM214.68 103.523V77.3623H218.874V100.827H228.559V103.523H214.68ZM231.555 103.523V77.3623H245.334V79.8586H235.748V88.6455H244.835V91.2416H235.748V100.827H245.734V103.523H231.555ZM258.514 91.3414V103.523H254.321V91.3414L246.233 77.3623H250.926L256.817 87.6469L263.008 77.3623H266.902L258.514 91.3414Z" fill="#111111"/>
</g>
<defs>
<clipPath id="clip0_39_1027">
<rect width="268" height="104" fill="white"/>
</clipPath>
</defs>
</svg>
