<?xml version="1.0" encoding="utf-8"?>
<!-- Generator: Adobe Illustrator 23.0.2, SVG Export Plug-In . SVG Version: 6.00 Build 0)  -->
<svg version="1.1" id="Ebene_1" xmlns="http://www.w3.org/2000/svg" xmlns:xlink="http://www.w3.org/1999/xlink" x="0px" y="0px"
	 viewBox="0 0 87 90" style="enable-background:new 0 0 87 90;" xml:space="preserve">
<style type="text/css">
	.st0{fill-rule:evenodd;clip-rule:evenodd;fill:#006AB1;}
	.st1{fill:#1A171B;}
</style>
<g>
	<g>
		<polygon class="st0" points="70.27,21.55 70.39,21.55 70.39,21.66 70.27,21.66 70.27,21.55 		"/>
		<path class="st0" d="M16.1,44.81l1.11,2.32h7.54L12.73,27.9h-0.62L0.08,47.13H7.6l1.14-2.32H16.1L16.1,44.81z M10.66,40.81
			l1.74-3.61l1.79,3.61H10.66L10.66,40.81z"/>
		<polygon class="st0" points="30.17,47.14 30.17,35.4 34.99,35.79 34.99,31.32 19.61,31.32 19.61,35.79 24.42,35.4 24.42,47.14 
			30.17,47.14 		"/>
		<polygon class="st0" points="33.77,47.14 38.86,47.14 39.1,41.24 42.88,44.02 46.35,41.38 46.67,47.14 52.16,47.14 51.65,31.34 
			51.22,31.34 42.9,37.45 34.97,31.34 34.5,31.34 33.77,47.14 		"/>
		<path class="st0" d="M85.18,31.08c-1.88-1.91-5.63-1.91-7.22-1.68c-2,0.27-4.25,1.05-5.53,3.39c-0.97,1.8-0.99,3.91-0.02,5.62
			c1.28,2.25,4.01,2.77,5.56,2.86c1.04,0.05,2.2,0.02,2.63,0.82c0.22,0.41,0.17,0.8-0.02,1.09c-0.41,0.61-1.21,0.75-1.84,0.75
			c-1.23-0.02-2.01-0.57-2.75-1.82l-4.57,1.61c0.39,1,0.75,1.55,1.16,1.98c2.03,2.16,5.77,2.39,7.47,2.18
			c2.12-0.25,4.85-1.2,6.23-3.75c0.92-1.7,0.92-4.07,0.02-5.59c-1.33-2.3-3.94-2.64-5.7-2.75c-0.92-0.07-2.49,0-2.9-0.96
			c-0.15-0.32-0.12-0.7,0.14-1.05c0.48-0.61,1.55-0.66,2.05-0.59c1.21,0.14,1.62,0.59,2.08,1.73l4.4-1.61
			C86.1,32.38,85.79,31.7,85.18,31.08L85.18,31.08z"/>
		<path class="st0" d="M71.75,39.29c0-4.76-4.12-8.63-9.64-8.63c-5.5,0-9.64,3.87-9.64,8.63c0,4.78,4.18,8.65,9.64,8.65
			C67.64,47.94,71.75,44.07,71.75,39.29L71.75,39.29z M62.14,35.86c2.06,0,3.56,1.58,3.56,3.43c0,1.85-1.57,3.43-3.53,3.43
			c-2.13,0-3.62-1.58-3.62-3.43C58.54,37.44,60.03,35.86,62.14,35.86L62.14,35.86z"/>
		<path class="st0" d="M12.71,25.7C18.06,14.09,30.26,5.98,44.45,5.98c14.19,0,26.39,8.11,31.74,19.72h-6.16
			C65.55,15.02,55.78,7.62,44.45,7.62c-11.33,0-21.1,7.4-25.58,18.08H12.71L12.71,25.7z"/>
		<path class="st0" d="M76.97,50.21C72.11,62.8,59.38,71.78,44.45,71.78c-14.93,0-27.66-8.98-32.52-21.56h6.23
			c4.1,11.66,14.32,19.92,26.29,19.92c11.97,0,22.2-8.26,26.29-19.92H76.97L76.97,50.21z"/>
	</g>
	<g>
		<path class="st1" d="M9.62,83.93l-1.63-5.31H7.95c0.06,1.08,0.09,1.8,0.09,2.16v3.15H6.75v-6.77H8.7l1.6,5.18h0.03l1.7-5.18h1.95
			v6.77h-1.34v-3.2c0-0.15,0-0.33,0.01-0.52c0-0.2,0.03-0.72,0.06-1.57h-0.04l-1.75,5.3H9.62z"/>
		<path class="st1" d="M17.92,84.02c-0.83,0-1.48-0.23-1.95-0.69c-0.47-0.46-0.7-1.11-0.7-1.95c0-0.87,0.22-1.54,0.65-2.01
			c0.43-0.47,1.03-0.71,1.8-0.71c0.73,0,1.3,0.21,1.71,0.62c0.41,0.42,0.61,0.99,0.61,1.73v0.69H16.7c0.02,0.4,0.13,0.71,0.36,0.94
			c0.22,0.23,0.53,0.34,0.94,0.34c0.31,0,0.61-0.03,0.88-0.1c0.28-0.06,0.57-0.17,0.87-0.31v1.09c-0.25,0.12-0.51,0.22-0.79,0.28
			C18.67,83.99,18.33,84.02,17.92,84.02z M17.72,79.66c-0.3,0-0.53,0.09-0.7,0.28c-0.17,0.19-0.27,0.46-0.29,0.81h1.98
			c-0.01-0.35-0.1-0.62-0.27-0.81C18.26,79.76,18.02,79.66,17.72,79.66z"/>
		<path class="st1" d="M22.82,84.02c-0.61,0-1.09-0.24-1.43-0.71c-0.35-0.47-0.52-1.13-0.52-1.96c0-0.85,0.18-1.51,0.53-1.98
			c0.35-0.47,0.84-0.71,1.46-0.71c0.65,0,1.15,0.25,1.49,0.76h0.05c-0.07-0.39-0.11-0.73-0.11-1.03v-1.66h1.42v7.2h-1.08l-0.27-0.67
			h-0.06C23.97,83.77,23.48,84.02,22.82,84.02z M23.32,82.9c0.36,0,0.63-0.1,0.79-0.31c0.17-0.21,0.26-0.57,0.28-1.07v-0.15
			c0-0.56-0.09-0.95-0.26-1.19c-0.17-0.24-0.45-0.36-0.84-0.36c-0.31,0-0.56,0.13-0.73,0.4c-0.17,0.27-0.26,0.66-0.26,1.16
			c0,0.51,0.09,0.89,0.26,1.15C22.74,82.77,22.99,82.9,23.32,82.9z"/>
		<path class="st1" d="M27.12,77.42c0-0.46,0.26-0.69,0.77-0.69s0.77,0.23,0.77,0.69c0,0.22-0.06,0.39-0.19,0.51
			c-0.13,0.12-0.32,0.18-0.58,0.18C27.38,78.11,27.12,77.88,27.12,77.42z M28.6,83.93h-1.41v-5.18h1.41V83.93z"/>
		<path class="st1" d="M33.68,83.93h-4.09V83.1l2.4-3.26h-2.25v-1.08h3.86v0.92l-2.33,3.18h2.42V83.93z"/>
		<path class="st1" d="M34.64,77.42c0-0.46,0.26-0.69,0.77-0.69c0.51,0,0.77,0.23,0.77,0.69c0,0.22-0.06,0.39-0.19,0.51
			c-0.13,0.12-0.32,0.18-0.58,0.18C34.9,78.11,34.64,77.88,34.64,77.42z M36.11,83.93H34.7v-5.18h1.41V83.93z"/>
		<path class="st1" d="M42.37,83.93h-1.41v-3.02c0-0.37-0.07-0.65-0.2-0.84c-0.13-0.19-0.34-0.28-0.63-0.28
			c-0.4,0-0.68,0.13-0.86,0.4c-0.18,0.26-0.26,0.7-0.26,1.31v2.44H37.6v-5.18h1.08l0.19,0.66h0.08c0.16-0.25,0.37-0.44,0.65-0.57
			c0.28-0.13,0.59-0.19,0.94-0.19c0.6,0,1.06,0.16,1.37,0.49c0.31,0.33,0.47,0.8,0.47,1.41V83.93z"/>
		<path class="st1" d="M46.55,83.93h-1.44v-5.57h-1.84v-1.19h5.11v1.19h-1.84V83.93z"/>
		<path class="st1" d="M51.66,84.02c-0.83,0-1.48-0.23-1.95-0.69c-0.47-0.46-0.7-1.11-0.7-1.95c0-0.87,0.22-1.54,0.65-2.01
			c0.43-0.47,1.03-0.71,1.8-0.71c0.73,0,1.3,0.21,1.71,0.62c0.41,0.42,0.61,0.99,0.61,1.73v0.69h-3.34c0.02,0.4,0.13,0.71,0.36,0.94
			c0.22,0.23,0.53,0.34,0.94,0.34c0.31,0,0.61-0.03,0.88-0.1c0.28-0.06,0.57-0.17,0.87-0.31v1.09c-0.25,0.12-0.51,0.22-0.79,0.28
			C52.41,83.99,52.07,84.02,51.66,84.02z M51.46,79.66c-0.3,0-0.53,0.09-0.7,0.28c-0.17,0.19-0.27,0.46-0.29,0.81h1.98
			c-0.01-0.35-0.1-0.62-0.27-0.81C52,79.76,51.76,79.66,51.46,79.66z"/>
		<path class="st1" d="M57.02,84.02c-1.61,0-2.42-0.88-2.42-2.65c0-0.88,0.22-1.55,0.66-2.02c0.44-0.46,1.07-0.7,1.88-0.7
			c0.6,0,1.14,0.12,1.61,0.35l-0.42,1.09c-0.22-0.09-0.43-0.16-0.62-0.22c-0.19-0.06-0.38-0.09-0.57-0.09c-0.73,0-1.1,0.52-1.1,1.57
			c0,1.01,0.37,1.52,1.1,1.52c0.27,0,0.52-0.04,0.75-0.11c0.23-0.07,0.46-0.19,0.69-0.34v1.21c-0.23,0.15-0.46,0.25-0.69,0.3
			C57.67,83.99,57.38,84.02,57.02,84.02z"/>
		<path class="st1" d="M64.58,83.93h-1.41v-3.02c0-0.75-0.28-1.12-0.83-1.12c-0.4,0-0.68,0.13-0.86,0.4
			c-0.18,0.27-0.26,0.7-0.26,1.31v2.44H59.8v-7.2h1.41v1.47c0,0.11-0.01,0.38-0.03,0.81l-0.03,0.42h0.07
			c0.31-0.51,0.81-0.76,1.5-0.76c0.61,0,1.07,0.16,1.38,0.49c0.31,0.33,0.47,0.8,0.47,1.41V83.93z"/>
		<path class="st1" d="M70.81,83.93H69.4v-3.02c0-0.37-0.07-0.65-0.2-0.84c-0.13-0.19-0.34-0.28-0.63-0.28
			c-0.4,0-0.68,0.13-0.86,0.4c-0.18,0.26-0.26,0.7-0.26,1.31v2.44h-1.41v-5.18h1.08l0.19,0.66h0.08c0.16-0.25,0.37-0.44,0.65-0.57
			c0.28-0.13,0.59-0.19,0.94-0.19c0.6,0,1.06,0.16,1.37,0.49c0.31,0.33,0.47,0.8,0.47,1.41V83.93z"/>
		<path class="st1" d="M72.2,77.42c0-0.46,0.26-0.69,0.77-0.69c0.51,0,0.77,0.23,0.77,0.69c0,0.22-0.06,0.39-0.19,0.51
			c-0.13,0.12-0.32,0.18-0.58,0.18C72.46,78.11,72.2,77.88,72.2,77.42z M73.67,83.93h-1.41v-5.18h1.41V83.93z"/>
		<path class="st1" d="M76.51,81.11l0.62-0.79l1.45-1.57h1.59L78.11,81l2.18,2.93h-1.63l-1.49-2.1l-0.61,0.49v1.61h-1.41v-7.2h1.41
			v3.21l-0.07,1.18H76.51z"/>
	</g>
</g>
</svg>
