<svg width="29" height="28" viewBox="0 0 29 28" fill="none" xmlns="http://www.w3.org/2000/svg">
<g clip-path="url(#clip0_44_218)">
<path d="M20.4709 7.58301H20.4826M8.21239 2.33301H19.8872C23.1111 2.33301 25.7245 4.94468 25.7245 8.16634V19.833C25.7245 23.0547 23.1111 25.6663 19.8872 25.6663H8.21239C4.98849 25.6663 2.375 23.0547 2.375 19.833V8.16634C2.375 4.94468 4.98849 2.33301 8.21239 2.33301ZM18.7197 13.2647C18.8638 14.2356 18.6978 15.2273 18.2454 16.0985C17.793 16.9698 17.0772 17.6763 16.1998 18.1176C15.3224 18.5589 14.3282 18.7125 13.3584 18.5566C12.3886 18.4007 11.4927 17.9431 10.7982 17.249C10.1036 16.555 9.64574 15.6597 9.48969 14.6906C9.33364 13.7215 9.48735 12.7279 9.92896 11.8511C10.3706 10.9743 11.0776 10.259 11.9495 9.80696C12.8213 9.35487 13.8137 9.18903 14.7853 9.33301C15.7764 9.47987 16.6939 9.94138 17.4024 10.6494C18.1109 11.3573 18.5727 12.2743 18.7197 13.2647Z" stroke="white" stroke-width="3" stroke-linecap="round" stroke-linejoin="round"/>
</g>
<defs>
<clipPath id="clip0_44_218">
<rect width="28.0195" height="28" fill="white" transform="translate(0.0410156)"/>
</clipPath>
</defs>
</svg>
