<svg width="33" height="32" viewBox="0 0 33 32" fill="none" xmlns="http://www.w3.org/2000/svg">
<path d="M21.3476 10.667C23.4708 10.667 25.5071 11.5098 27.0084 13.0101C28.5097 14.5104 29.3532 16.5453 29.3532 18.667V28.0003H24.0161V18.667C24.0161 17.9597 23.735 17.2815 23.2345 16.7814C22.7341 16.2813 22.0553 16.0003 21.3476 16.0003C20.6399 16.0003 19.9611 16.2813 19.4607 16.7814C18.9602 17.2815 18.6791 17.9597 18.6791 18.667V28.0003H13.342V18.667C13.342 16.5453 14.1855 14.5104 15.6868 13.0101C17.1882 11.5098 19.2244 10.667 21.3476 10.667Z" fill="white"/>
<path d="M8.00501 12.0003H2.66797V28.0003H8.00501V12.0003Z" fill="white"/>
<path d="M5.33649 8.00033C6.81027 8.00033 8.00501 6.80642 8.00501 5.33366C8.00501 3.8609 6.81027 2.66699 5.33649 2.66699C3.86271 2.66699 2.66797 3.8609 2.66797 5.33366C2.66797 6.80642 3.86271 8.00033 5.33649 8.00033Z" fill="white"/>
</svg>
