<svg width="82" height="24" viewBox="0 0 82 24" fill="none" xmlns="http://www.w3.org/2000/svg">
<g filter="url(#filter0_d_44_208)">
<path d="M5.71484 0.78125H8.41992L10.6562 10.6738L12.8926 0.78125H15.5879L11.7598 15H9.55273L5.71484 0.78125ZM4.04492 0.78125H6.84766L7.38477 11.6797V15H4.04492V0.78125ZM14.4551 0.78125H17.2676V15H13.918V11.6797L14.4551 0.78125ZM23.6152 15.1953C22.86 15.1953 22.1862 15.0911 21.5938 14.8828C21.0078 14.6745 20.5163 14.3685 20.1191 13.9648C19.722 13.5547 19.4193 13.0566 19.2109 12.4707C19.0091 11.8848 18.9082 11.2142 18.9082 10.459V9.30664C18.9082 8.46029 18.9961 7.72135 19.1719 7.08984C19.3542 6.45833 19.6243 5.93424 19.9824 5.51758C20.3405 5.0944 20.7962 4.77539 21.3496 4.56055C21.903 4.3457 22.554 4.23828 23.3027 4.23828C23.9603 4.23828 24.543 4.33594 25.0508 4.53125C25.5651 4.72656 25.998 5.0293 26.3496 5.43945C26.7077 5.8431 26.9811 6.36068 27.1699 6.99219C27.3587 7.61719 27.4531 8.35938 27.4531 9.21875V10.752H20.1094V8.69141H24.3184V8.33008C24.3249 7.90039 24.2858 7.57487 24.2012 7.35352C24.123 7.13216 24.0059 6.98242 23.8496 6.9043C23.6934 6.81966 23.5013 6.77734 23.2734 6.77734C23.0065 6.77734 22.7949 6.82292 22.6387 6.91406C22.4824 7.00521 22.3685 7.14844 22.2969 7.34375C22.2253 7.53906 22.1764 7.79948 22.1504 8.125C22.1309 8.45052 22.1211 8.8444 22.1211 9.30664V10.459C22.1211 10.9147 22.1569 11.2858 22.2285 11.5723C22.3066 11.8587 22.4173 12.0801 22.5605 12.2363C22.7103 12.3926 22.8893 12.5033 23.0977 12.5684C23.3125 12.627 23.5566 12.6562 23.8301 12.6562C24.2207 12.6562 24.6016 12.5911 24.9727 12.4609C25.3438 12.3242 25.6595 12.1029 25.9199 11.7969L27.2285 13.7891C27.0527 14.0169 26.7923 14.2415 26.4473 14.4629C26.1022 14.6777 25.6921 14.8535 25.2168 14.9902C24.7415 15.127 24.2077 15.1953 23.6152 15.1953ZM33.7227 12.5781V0H36.9355V15H34.0547L33.7227 12.5781ZM28.4395 10.2344V9.24805C28.4395 8.38216 28.5111 7.63672 28.6543 7.01172C28.804 6.38021 29.0221 5.85938 29.3086 5.44922C29.6016 5.03906 29.9661 4.73633 30.4023 4.54102C30.8451 4.33919 31.3496 4.23828 31.916 4.23828C32.3978 4.23828 32.8112 4.37174 33.1562 4.63867C33.5013 4.9056 33.791 5.27669 34.0254 5.75195C34.2663 6.22721 34.4616 6.78385 34.6113 7.42188C34.7676 8.0599 34.8848 8.74349 34.9629 9.47266V10.1367C34.8717 10.8203 34.7513 11.4681 34.6016 12.0801C34.4518 12.6855 34.2565 13.2227 34.0156 13.6914C33.7812 14.1602 33.4883 14.528 33.1367 14.7949C32.7917 15.0618 32.3783 15.1953 31.8965 15.1953C31.3236 15.1953 30.8223 15.0944 30.3926 14.8926C29.9629 14.6842 29.6016 14.375 29.3086 13.9648C29.0221 13.5482 28.804 13.0306 28.6543 12.4121C28.5111 11.7936 28.4395 11.0677 28.4395 10.2344ZM31.6426 9.24805V10.2344C31.6426 10.6901 31.6556 11.0742 31.6816 11.3867C31.7142 11.6927 31.7695 11.9401 31.8477 12.1289C31.9323 12.3177 32.0462 12.4544 32.1895 12.5391C32.3327 12.6172 32.515 12.6562 32.7363 12.6562C33.0423 12.6562 33.293 12.5651 33.4883 12.3828C33.6836 12.2005 33.8236 11.9401 33.9082 11.6016C33.9928 11.2565 34.0156 10.8529 33.9766 10.3906V9.19922C34.0026 8.79557 33.9896 8.44401 33.9375 8.14453C33.8919 7.83854 33.8138 7.58464 33.7031 7.38281C33.599 7.18099 33.4655 7.03125 33.3027 6.93359C33.1465 6.82943 32.9642 6.77734 32.7559 6.77734C32.5475 6.77734 32.3685 6.81966 32.2188 6.9043C32.0755 6.98242 31.9616 7.11589 31.877 7.30469C31.7988 7.49349 31.7402 7.7474 31.7012 8.06641C31.6621 8.38542 31.6426 8.7793 31.6426 9.24805ZM44.9922 0.78125V15H41.6426V0.78125H44.9922ZM48.4395 0.78125V3.42773H38.293V0.78125H48.4395ZM54.1719 12.4316V4.43359H57.3848V15H54.3867L54.1719 12.4316ZM54.4648 10.2832L55.2559 10.2637C55.2559 10.9733 55.1842 11.6309 55.041 12.2363C54.8978 12.8353 54.6895 13.3561 54.416 13.7988C54.1426 14.2415 53.8073 14.5866 53.4102 14.834C53.0195 15.0749 52.5671 15.1953 52.0527 15.1953C51.61 15.1953 51.2064 15.1237 50.8418 14.9805C50.4837 14.8307 50.1712 14.5996 49.9043 14.2871C49.6439 13.9681 49.4388 13.5612 49.2891 13.0664C49.1458 12.5651 49.0742 11.9661 49.0742 11.2695V4.43359H52.2773V11.2891C52.2773 11.5234 52.2936 11.7253 52.3262 11.8945C52.3652 12.0638 52.4173 12.207 52.4824 12.3242C52.554 12.4349 52.6452 12.5195 52.7559 12.5781C52.8665 12.6302 52.9967 12.6562 53.1465 12.6562C53.485 12.6562 53.752 12.5521 53.9473 12.3438C54.1426 12.1354 54.276 11.8522 54.3477 11.4941C54.4258 11.1361 54.4648 10.7324 54.4648 10.2832ZM59.1035 0H62.3066V12.4023L61.9746 15H59.1035V0ZM67.5801 9.20898V10.1953C67.5801 11.0612 67.5117 11.8066 67.375 12.4316C67.2448 13.0566 67.0365 13.5742 66.75 13.9844C66.4635 14.3945 66.1022 14.7005 65.666 14.9023C65.2298 15.0977 64.7122 15.1953 64.1133 15.1953C63.599 15.1953 63.166 15.0618 62.8145 14.7949C62.4694 14.528 62.1829 14.1602 61.9551 13.6914C61.7272 13.2161 61.5449 12.6693 61.4082 12.0508C61.2715 11.4258 61.1576 10.7585 61.0664 10.0488V9.38477C61.1576 8.68164 61.2682 8.01758 61.3984 7.39258C61.5352 6.76758 61.7174 6.2207 61.9453 5.75195C62.1732 5.27669 62.4596 4.9056 62.8047 4.63867C63.1562 4.37174 63.5892 4.23828 64.1035 4.23828C64.709 4.23828 65.2298 4.34245 65.666 4.55078C66.1022 4.7526 66.4635 5.06185 66.75 5.47852C67.0365 5.88867 67.2448 6.40299 67.375 7.02148C67.5117 7.63997 67.5801 8.36914 67.5801 9.20898ZM64.377 10.1953V9.20898C64.377 8.76628 64.3639 8.39193 64.3379 8.08594C64.3184 7.77344 64.2728 7.52279 64.2012 7.33398C64.1296 7.13867 64.0189 6.9987 63.8691 6.91406C63.7259 6.82292 63.5306 6.77734 63.2832 6.77734C63.0358 6.77734 62.8275 6.82943 62.6582 6.93359C62.4954 7.03776 62.3652 7.19076 62.2676 7.39258C62.1764 7.58789 62.1113 7.83203 62.0723 8.125C62.0397 8.41146 62.0332 8.74023 62.0527 9.11133V10.3027C62.0202 10.8105 62.0332 11.2402 62.0918 11.5918C62.1504 11.9434 62.2741 12.2103 62.4629 12.3926C62.6582 12.5749 62.9349 12.666 63.293 12.666C63.5534 12.666 63.7552 12.6302 63.8984 12.5586C64.0482 12.4805 64.1556 12.3503 64.2207 12.168C64.2923 11.9792 64.3346 11.7253 64.3477 11.4062C64.3672 11.0807 64.377 10.6771 64.377 10.1953ZM73.4785 15.1953C72.7233 15.1953 72.0495 15.0911 71.457 14.8828C70.8711 14.6745 70.3796 14.3685 69.9824 13.9648C69.5853 13.5547 69.2826 13.0566 69.0742 12.4707C68.8724 11.8848 68.7715 11.2142 68.7715 10.459V9.30664C68.7715 8.46029 68.8594 7.72135 69.0352 7.08984C69.2174 6.45833 69.4876 5.93424 69.8457 5.51758C70.2038 5.0944 70.6595 4.77539 71.2129 4.56055C71.7663 4.3457 72.4173 4.23828 73.166 4.23828C73.8236 4.23828 74.4062 4.33594 74.9141 4.53125C75.4284 4.72656 75.8613 5.0293 76.2129 5.43945C76.571 5.8431 76.8444 6.36068 77.0332 6.99219C77.222 7.61719 77.3164 8.35938 77.3164 9.21875V10.752H69.9727V8.69141H74.1816V8.33008C74.1882 7.90039 74.1491 7.57487 74.0645 7.35352C73.9863 7.13216 73.8691 6.98242 73.7129 6.9043C73.5566 6.81966 73.3646 6.77734 73.1367 6.77734C72.8698 6.77734 72.6582 6.82292 72.502 6.91406C72.3457 7.00521 72.2318 7.14844 72.1602 7.34375C72.0885 7.53906 72.0397 7.79948 72.0137 8.125C71.9941 8.45052 71.9844 8.8444 71.9844 9.30664V10.459C71.9844 10.9147 72.0202 11.2858 72.0918 11.5723C72.1699 11.8587 72.2806 12.0801 72.4238 12.2363C72.5736 12.3926 72.7526 12.5033 72.9609 12.5684C73.1758 12.627 73.4199 12.6562 73.6934 12.6562C74.084 12.6562 74.4648 12.5911 74.8359 12.4609C75.207 12.3242 75.5228 12.1029 75.7832 11.7969L77.0918 13.7891C76.916 14.0169 76.6556 14.2415 76.3105 14.4629C75.9655 14.6777 75.5553 14.8535 75.0801 14.9902C74.6048 15.127 74.071 15.1953 73.4785 15.1953Z" fill="white"/>
</g>
<defs>
<filter id="filter0_d_44_208" x="0.0449219" y="0" width="81.2715" height="23.1953" filterUnits="userSpaceOnUse" color-interpolation-filters="sRGB">
<feFlood flood-opacity="0" result="BackgroundImageFix"/>
<feColorMatrix in="SourceAlpha" type="matrix" values="0 0 0 0 0 0 0 0 0 0 0 0 0 0 0 0 0 0 127 0" result="hardAlpha"/>
<feOffset dy="4"/>
<feGaussianBlur stdDeviation="2"/>
<feComposite in2="hardAlpha" operator="out"/>
<feColorMatrix type="matrix" values="0 0 0 0 1 0 0 0 0 1 0 0 0 0 1 0 0 0 0.08 0"/>
<feBlend mode="normal" in2="BackgroundImageFix" result="effect1_dropShadow_44_208"/>
<feBlend mode="normal" in="SourceGraphic" in2="effect1_dropShadow_44_208" result="shape"/>
</filter>
</defs>
</svg>
